<?xml version="1.0" standalone="no"?>
<!DOCTYPE svg PUBLIC "-//W3C//DTD SVG 20010904//EN"
 "http://www.w3.org/TR/2001/REC-SVG-20010904/DTD/svg10.dtd">
<svg version="1.0" xmlns="http://www.w3.org/2000/svg"
 width="512.000000pt" height="512.000000pt" viewBox="0 0 512.000000 512.000000"
 preserveAspectRatio="xMidYMid meet">
<metadata>
Created by potrace 1.14, written by Peter Selinger 2001-2017
</metadata>
<g transform="translate(0.000000,512.000000) scale(0.100000,-0.100000)"
fill="#000000" stroke="none">
<path d="M3146 4439 c-81 -21 -180 -64 -233 -100 -23 -16 -46 -29 -51 -29 -6
0 -12 -3 -14 -7 -1 -5 -23 -24 -48 -44 -76 -61 -105 -94 -143 -157 -56 -90
-118 -242 -133 -322 -3 -14 -8 -34 -11 -45 -9 -25 -13 -44 -17 -73 -4 -26 -3
-26 84 -5 14 4 37 7 52 7 14 1 24 4 21 9 -9 15 10 7 24 -10 14 -17 14 -17 9 0
-4 13 2 21 22 28 15 6 34 14 42 19 8 4 25 5 38 3 13 -1 21 1 18 5 -2 4 5 9 16
9 20 2 20 1 2 -13 -18 -13 -17 -14 9 -8 16 4 27 2 27 -5 0 -6 -7 -8 -15 -5
-11 5 -13 2 -9 -10 3 -9 10 -13 15 -10 5 3 6 -2 2 -11 -5 -15 -3 -15 16 -4 11
8 21 17 21 22 0 4 -4 5 -10 2 -5 -3 -10 -1 -10 5 0 7 6 10 13 7 6 -2 11 -12
11 -21 -2 -23 13 -20 42 10 24 23 27 24 39 7 7 -9 11 -22 8 -28 -2 -7 3 -12
12 -12 18 0 18 2 5 28 -7 13 -7 19 0 19 5 0 10 -7 10 -15 0 -8 5 -15 11 -15 6
0 8 8 5 18 -3 9 -1 24 4 32 7 11 10 11 10 2 0 -10 3 -10 14 0 17 16 11 29 -9
21 -8 -3 -15 0 -15 7 0 6 -5 8 -12 4 -7 -4 -8 -3 -4 5 6 8 12 9 20 2 13 -11
26 -5 26 11 0 5 -5 6 -12 2 -7 -4 -8 -3 -4 5 10 15 27 4 24 -16 -2 -9 3 -18
11 -21 8 -3 11 0 7 7 -4 6 -2 9 7 5 16 -6 19 25 4 44 -13 16 1 15 18 -2 8 -7
11 -17 7 -21 -4 -4 0 -6 8 -3 8 3 14 13 12 23 -3 14 -1 15 11 4 9 -9 11 -16 5
-20 -5 -4 -3 -9 5 -12 8 -3 20 0 26 6 14 14 53 17 69 5 8 -7 12 -7 12 1 0 6
-4 11 -10 11 -14 0 -12 13 4 35 13 18 14 17 29 -11 9 -16 16 -24 16 -19 1 6
-3 17 -9 25 -6 9 -5 17 3 22 17 11 -24 5 -42 -6 -11 -7 -13 -5 -8 6 3 9 0 21
-6 28 -10 10 -7 10 12 0 28 -14 46 3 31 31 -5 9 -6 19 -3 23 4 4 12 -2 18 -13
10 -20 11 -20 24 2 13 20 13 21 -2 8 -10 -8 -17 -9 -17 -3 0 14 41 43 51 36 4
-2 10 0 14 5 3 6 -6 8 -21 5 -23 -4 -25 -3 -15 9 9 12 8 16 -4 21 -13 4 -14
10 -5 26 6 11 8 25 5 30 -3 6 -1 10 4 10 6 0 11 8 11 18 0 25 11 34 25 22 8
-7 18 -3 31 13 19 22 19 22 -2 4 -23 -19 -36 -14 -27 11 3 10 -3 6 -14 -8 -11
-14 -22 -33 -26 -42 -3 -10 -11 -18 -17 -18 -6 0 -4 12 5 29 15 30 11 61 -7
61 -5 0 -7 4 -3 9 7 12 -29 33 -39 24 -3 -3 -6 0 -6 9 0 26 11 27 37 2 14 -13
31 -24 37 -24 6 0 4 6 -5 13 -8 7 -15 26 -14 44 1 26 -2 30 -13 21 -7 -6 -9
-14 -5 -17 9 -7 15 -31 8 -31 -10 0 -43 39 -37 44 3 3 0 6 -7 6 -8 0 -11 -7
-7 -15 7 -19 -3 -47 -15 -39 -5 3 -6 10 -3 16 4 6 0 15 -7 20 -11 7 -11 11 -1
15 14 5 16 23 3 23 -14 0 -22 -31 -11 -45 7 -9 6 -16 -5 -25 -12 -10 -15 -10
-16 1 -2 24 3 64 9 74 3 5 6 21 6 35 1 16 6 24 15 22 11 -2 12 0 3 11 -11 13
-9 67 3 104 5 15 -21 13 -99 -8z m127 -266 c40 -2 42 -3 27 -12 -8 -6 -19 -7
-25 -4 -5 4 -7 3 -3 -2 4 -4 2 -15 -5 -23 -9 -12 -9 -14 0 -9 8 5 11 1 8 -13
-4 -19 -3 -19 21 -4 26 18 32 26 11 18 -8 -3 -14 2 -14 11 0 19 11 19 28 -1
10 -13 10 -17 -2 -25 -8 -5 -10 -9 -6 -9 4 0 3 -9 -3 -19 -8 -16 -6 -22 7 -30
20 -11 14 -21 -14 -24 -11 0 -20 -7 -20 -13 0 -10 5 -10 21 -2 12 6 18 7 14 3
-4 -5 -3 -14 2 -21 16 -18 -3 -69 -22 -58 -7 5 -21 -14 -24 -33 -1 -7 2 -13 7
-13 6 0 7 -5 3 -11 -3 -6 -9 -7 -13 -3 -8 12 -41 17 -41 6 0 -5 3 -12 7 -15
13 -14 11 -56 -3 -68 -8 -6 -17 -9 -21 -5 -3 3 -15 -2 -25 -11 -18 -16 -18
-16 -12 0 3 9 10 18 15 18 5 1 13 2 19 3 20 2 29 21 19 36 -9 12 -10 12 -5 -3
4 -12 2 -16 -6 -11 -7 5 -8 3 -3 -6 5 -9 4 -11 -3 -6 -6 4 -21 2 -33 -5 -15
-8 -19 -8 -15 0 4 6 1 11 -7 11 -8 0 -21 8 -28 18 -11 14 -11 15 1 5 21 -20
46 -15 47 8 2 16 -1 18 -12 9 -15 -13 -39 -4 -30 11 4 5 2 9 -4 9 -5 0 -11 -5
-13 -10 -2 -6 -9 -1 -16 11 -11 17 -11 20 0 13 7 -5 20 -9 28 -9 8 0 14 -6 13
-12 -5 -24 17 -13 27 12 11 28 24 35 16 7 -4 -13 -1 -18 14 -18 11 0 22 7 25
14 4 10 0 12 -10 8 -9 -3 -14 -2 -11 3 3 5 -1 14 -8 20 -10 8 -16 9 -21 1 -3
-5 -12 -10 -18 -10 -7 0 -4 5 7 11 15 9 16 13 5 20 -8 5 -9 9 -3 9 6 0 19 -9
29 -20 29 -32 39 -23 11 11 -14 17 -26 34 -27 37 0 4 -2 15 -4 24 -2 10 2 21
7 25 7 3 8 1 4 -5 -5 -8 1 -12 16 -13 l23 -1 -22 -6 c-17 -5 -20 -11 -13 -22
9 -13 11 -13 20 0 5 8 10 10 10 5 0 -6 -5 -16 -12 -23 -9 -9 -9 -12 -1 -12 16
0 28 21 25 43 -3 16 8 22 37 17 12 -1 13 1 2 14 -10 12 -18 13 -33 5 -11 -6
-22 -8 -26 -5 -3 3 0 6 6 6 7 0 12 7 12 16 0 14 -3 14 -15 4 -9 -7 -18 -10
-22 -7 -3 4 -12 2 -20 -5 -10 -8 -17 -8 -26 1 -9 10 -8 11 4 6 10 -4 20 -2 24
4 3 6 -2 11 -12 12 -11 0 -13 3 -5 6 7 3 19 -1 28 -7 11 -10 18 -10 32 4 10 9
22 13 25 9 4 -3 7 -1 7 5 0 15 -26 16 -35 2 -8 -13 -25 -13 -25 1 0 5 4 8 9 4
6 -3 15 3 20 14 14 25 14 42 0 19 -12 -22 -33 -24 -26 -3 4 8 1 17 -4 21 -7 4
-7 10 -1 16 6 6 8 17 4 26 -4 11 -1 14 11 9 9 -3 19 -1 23 5 5 8 10 7 18 -3 6
-8 19 -15 29 -16z m-93 -73 c0 -5 -5 -10 -11 -10 -5 0 -7 5 -4 10 3 6 8 10 11
10 2 0 4 -4 4 -10z m-16 -119 c3 -5 0 -14 -8 -20 -10 -9 -15 -8 -19 3 -4 11
-1 13 10 9 11 -4 14 -2 9 5 -4 7 -5 12 -2 12 3 0 7 -4 10 -9z m-38 -46 c-1 -8
-5 -17 -8 -21 -4 -3 -5 2 -4 13 2 10 -2 25 -8 33 -9 13 -9 13 6 2 9 -7 15 -19
14 -27z m-71 -35 c-3 -5 -12 -10 -18 -10 -7 0 -6 4 3 10 19 12 23 12 15 0z
m-1 -38 c2 -4 -4 -8 -14 -8 -10 0 -16 4 -14 8 3 4 9 8 14 8 5 0 11 -4 14 -8z
m-83 -45 c-6 -8 -7 -18 -3 -22 4 -5 1 -5 -6 -1 -10 6 -10 11 -1 22 6 8 14 14
16 14 3 0 0 -6 -6 -13z m49 8 c0 -1 -10 -10 -22 -21 -14 -12 -18 -13 -10 -3 6
9 10 18 7 21 -3 2 2 5 10 5 8 0 15 -1 15 -2z m37 -1 c-3 -3 -12 -4 -19 -1 -8
3 -5 6 6 6 11 1 17 -2 13 -5z m68 -5 c11 -16 1 -19 -13 -3 -7 8 -8 14 -3 14 5
0 13 -5 16 -11z m-36 -43 c-3 -3 -11 5 -18 17 -13 21 -12 21 5 5 10 -10 16
-20 13 -22z m-104 -17 c-4 -12 -3 -19 2 -16 5 3 15 2 23 -3 11 -7 9 -9 -8 -7
-13 1 -28 10 -34 20 -7 14 -7 17 1 13 6 -4 11 -2 11 3 0 6 3 11 6 11 3 0 2
-10 -1 -21z m-55 1 c0 -5 -2 -10 -4 -10 -3 0 -8 5 -11 10 -3 6 -1 10 4 10 6 0
11 -4 11 -10z m-60 -4 c0 -2 -7 -7 -16 -10 -8 -3 -12 -2 -9 4 6 10 25 14 25 6z
m35 -17 c-4 -5 -13 -9 -21 -9 -8 0 -12 -4 -9 -10 4 -6 -1 -7 -12 -3 -15 6 -13
8 10 18 15 6 24 15 20 20 -5 4 -2 5 5 1 7 -4 10 -12 7 -17z m36 -2 c-10 -9
-11 -8 -5 6 3 10 9 15 12 12 3 -3 0 -11 -7 -18z m-1 -22 c0 -1 -12 -2 -26 -2
-17 0 -22 2 -13 7 10 7 39 3 39 -5z m67 -1 c-3 -3 -12 -4 -19 -1 -8 3 -5 6 6
6 11 1 17 -2 13 -5z m-77 -18 c0 -3 -4 -8 -10 -11 -5 -3 -10 -1 -10 4 0 6 5
11 10 11 6 0 10 -2 10 -4z"/>
<path d="M3205 4172 c3 -3 0 -11 -6 -19 -11 -13 -9 -15 21 -17 8 -1 15 -8 15
-16 0 -8 6 -20 14 -26 15 -12 6 -38 -10 -29 -5 3 -6 -1 -3 -9 3 -9 10 -14 14
-11 5 3 11 1 14 -4 5 -8 14 -8 45 -2 2 1 -1 7 -7 14 -15 18 -15 29 0 39 10 8
10 9 -2 5 -8 -2 -14 -10 -12 -16 1 -6 -2 -11 -8 -11 -9 0 -12 8 -9 26 0 4 -5
10 -11 14 -8 5 -9 13 -4 21 11 18 14 39 6 38 -4 -1 -9 0 -12 1 -12 4 -50 6
-45 2z m49 -34 c-4 -5 -11 -5 -18 1 -7 6 -17 7 -22 3 -4 -4 -2 1 5 11 10 13
17 15 27 6 8 -6 11 -15 8 -21z m26 -83 c5 3 11 1 14 -4 4 -5 -2 -8 -11 -7 -9
2 -18 8 -19 15 -1 6 0 7 3 1 2 -5 9 -8 13 -5z"/>
<path d="M3249 4004 c-1 -5 -1 -13 0 -18 1 -5 -6 -17 -15 -27 -19 -21 -11 -40
14 -33 14 5 14 3 -2 -10 -11 -9 -14 -16 -8 -16 7 0 15 0 20 0 4 0 8 5 8 10 1
6 3 13 4 18 1 4 2 10 1 15 0 4 4 7 9 7 6 0 10 4 10 8 0 5 -7 9 -15 9 -8 0 -12
-4 -9 -8 2 -4 0 -10 -5 -13 -5 -4 -13 -1 -17 5 -4 8 -3 9 5 5 7 -4 10 -2 9 4
-4 18 32 21 39 3 5 -12 7 -12 14 -2 9 15 -9 42 -23 33 -5 -3 -15 0 -23 6 -8 7
-16 9 -16 4z"/>
<path d="M3189 3862 c0 -4 -2 -15 -4 -24 -4 -20 21 -13 29 8 3 9 11 12 18 8 7
-4 10 -3 5 1 -10 12 -47 17 -48 7z"/>
<path d="M3314 4294 c1 -8 4 -15 7 -16 2 -2 3 -1 2 1 -2 2 2 9 7 16 7 8 5 12
-4 12 -8 0 -13 -6 -12 -13z"/>
<path d="M3256 4279 c3 -5 14 -9 25 -9 13 0 18 -4 13 -12 -4 -7 -3 -8 5 -4 16
10 6 23 -24 28 -13 3 -22 1 -19 -3z"/>
<path d="M3370 4280 c0 -5 5 -10 11 -10 5 0 7 5 4 10 -3 6 -8 10 -11 10 -2 0
-4 -4 -4 -10z"/>
<path d="M3395 4251 c-3 -5 -2 -12 3 -15 5 -3 9 1 9 9 0 17 -3 19 -12 6z"/>
<path d="M3347 4233 c3 -7 8 -13 12 -13 4 0 8 6 8 13 0 8 -6 14 -13 14 -7 0
-10 -6 -7 -14z"/>
<path d="M3376 4213 c-6 -14 -5 -15 5 -6 7 7 10 15 7 18 -3 3 -9 -2 -12 -12z"/>
<path d="M3340 4206 c0 -2 8 -10 18 -17 15 -13 16 -12 3 4 -13 16 -21 21 -21
13z"/>
<path d="M3396 4202 c-3 -5 1 -9 9 -9 8 0 12 4 9 9 -3 4 -7 8 -9 8 -2 0 -6 -4
-9 -8z"/>
<path d="M3414 4160 c0 -13 4 -16 10 -10 7 7 7 13 0 20 -6 6 -10 3 -10 -10z"/>
<path d="M3455 4171 c-3 -5 -2 -12 3 -15 5 -3 9 1 9 9 0 17 -3 19 -12 6z"/>
<path d="M3360 4159 c0 -5 5 -7 10 -4 6 3 10 8 10 11 0 2 -4 4 -10 4 -5 0 -10
-5 -10 -11z"/>
<path d="M3340 4151 c0 -6 4 -13 10 -16 6 -3 7 1 4 9 -7 18 -14 21 -14 7z"/>
<path d="M3416 4094 c-8 -20 -8 -24 2 -24 4 0 8 9 9 20 2 24 -3 26 -11 4z"/>
<path d="M3360 4084 c0 -20 27 -37 36 -23 4 7 3 9 -4 5 -6 -3 -15 2 -21 11 -6
10 -11 13 -11 7z"/>
<path d="M3367 4030 c13 -14 20 -17 30 -8 7 6 13 15 13 21 0 6 -6 3 -13 -7
-12 -17 -14 -17 -20 -2 -4 9 -11 16 -17 16 -5 0 -2 -9 7 -20z"/>
<path d="M3347 4016 c-4 -10 -3 -15 3 -11 6 3 10 -2 11 -12 0 -10 3 -13 5 -6
3 7 1 20 -4 29 -8 15 -9 15 -15 0z"/>
<path d="M3395 3930 c10 -11 20 -20 23 -20 3 0 -3 9 -13 20 -10 11 -20 20 -23
20 -3 0 3 -9 13 -20z"/>
<path d="M3335 3899 c-4 -6 -5 -12 -2 -15 2 -3 7 2 10 11 7 17 1 20 -8 4z"/>
<path d="M3359 3893 c-13 -16 -12 -17 4 -4 16 13 21 21 13 21 -2 0 -10 -8 -17
-17z"/>
<path d="M3393 3895 c0 -8 4 -12 9 -9 5 3 6 10 3 15 -9 13 -12 11 -12 -6z"/>
<path d="M3366 3858 c3 -5 10 -6 15 -3 13 9 11 12 -6 12 -8 0 -12 -4 -9 -9z"/>
<path d="M3316 3833 c-6 -14 -5 -15 5 -6 7 7 10 15 7 18 -3 3 -9 -2 -12 -12z"/>
<path d="M3284 3765 c-10 -8 -14 -15 -8 -15 6 0 17 7 24 15 16 19 9 19 -16 0z"/>
<path d="M3115 3759 c6 -8 -66 -54 -78 -51 -5 2 -7 -3 -5 -10 3 -7 10 -13 16
-13 7 0 12 -4 13 -10 0 -5 6 -16 12 -24 9 -11 9 -13 0 -8 -6 4 -13 3 -15 -2
-1 -5 -10 -2 -18 7 -13 14 -13 15 1 10 9 -4 16 -1 16 7 0 15 -30 4 -42 -15 -4
-6 -11 -8 -16 -5 -5 4 -9 1 -9 -4 0 -6 -4 -11 -9 -11 -5 0 -8 11 -6 25 1 14
-2 28 -7 31 -15 9 -35 -15 -35 -41 0 -20 2 -23 13 -14 7 6 11 16 8 24 -3 7 -1
16 4 19 5 3 8 -6 6 -19 -1 -15 4 -29 14 -35 10 -5 12 -10 7 -10 -6 0 -17 6
-25 13 -11 9 -11 8 0 -8 14 -19 14 -19 -5 -5 -19 14 -19 14 -5 -4 10 -13 4
-11 -24 8 -21 14 -43 23 -48 20 -15 -10 3 -19 45 -23 4 -1 6 -6 5 -12 -2 -6 7
-13 20 -15 12 -2 22 1 22 7 0 6 7 8 16 5 10 -4 13 -2 8 7 -5 7 0 5 11 -3 12
-9 16 -10 11 -2 -6 9 -1 11 18 8 16 -3 25 0 23 7 -1 6 6 13 16 15 9 2 17 -2
17 -8 0 -6 -4 -8 -10 -5 -5 3 -7 0 -4 -8 2 -7 -1 -14 -8 -15 -19 -1 -73 -10
-73 -12 0 -1 -14 -4 -65 -14 -14 -2 -25 -5 -25 -6 0 -1 -8 -3 -17 -6 -31 -7
-43 -11 -61 -19 -11 -5 -23 -3 -30 5 -10 10 -7 12 11 7 14 -3 20 -1 15 5 -4 7
-1 8 7 3 8 -5 11 -4 7 2 -4 6 7 9 28 8 l34 -1 -40 37 c-25 23 -47 35 -56 32
-12 -5 -14 -1 -8 18 5 19 4 21 -5 9 -10 -13 -11 -13 -6 2 3 10 1 20 -4 23 -6
4 -10 -3 -10 -14 0 -12 -6 -20 -12 -18 -7 1 -12 -3 -11 -10 2 -6 -6 -11 -17
-10 -19 1 -29 17 -12 17 13 0 52 40 52 53 -1 8 -5 7 -13 -3 -7 -9 -21 -15 -31
-15 -16 0 -20 -8 -21 -55 -2 -30 0 -48 3 -40 5 16 22 30 35 30 5 0 -1 -12 -12
-26 -28 -35 -27 -41 9 -42 17 0 30 4 30 10 0 18 14 0 17 -22 1 -10 -2 -22 -7
-25 -6 -3 -10 1 -10 9 0 9 -5 16 -11 16 -5 0 -7 -5 -4 -10 8 -13 -84 -53 -103
-45 -9 3 -18 1 -22 -4 -3 -6 -15 -12 -25 -14 -11 -2 -28 -7 -37 -11 -9 -4 -22
-5 -28 -1 -5 3 -10 2 -10 -3 0 -16 -76 -6 -133 17 -31 13 -57 26 -57 30 0 4
-10 7 -22 8 -11 1 -24 6 -27 10 -3 4 -10 9 -16 10 -27 6 -118 43 -133 55 -11
9 -14 10 -8 1 8 -14 -19 -8 -40 8 -6 5 -14 6 -17 2 -4 -3 -14 0 -24 8 -11 9
-14 10 -9 2 5 -10 1 -11 -17 -4 -42 16 -216 11 -294 -9 -76 -20 -244 -98 -279
-131 -11 -10 -23 -19 -26 -19 -16 0 -164 -142 -205 -197 -15 -21 -30 -40 -33
-43 -7 -6 -80 -130 -80 -135 0 -3 -11 -28 -24 -57 -61 -132 -95 -296 -100
-486 -2 -56 -6 -105 -10 -109 -3 -3 -2 -11 4 -17 12 -15 16 -98 5 -116 -5 -8
-4 -11 2 -7 7 4 12 -7 15 -27 2 -22 0 -32 -7 -28 -5 3 -4 -2 4 -11 7 -9 11
-26 8 -37 -3 -11 -2 -20 2 -20 4 0 8 -6 9 -12 0 -7 4 -29 8 -48 4 -19 8 -45 8
-57 1 -11 4 -19 9 -16 4 2 8 -7 9 -21 0 -14 1 -32 2 -38 1 -7 -5 -12 -12 -10
-8 1 -11 -2 -7 -7 3 -6 12 -8 20 -4 13 5 21 -19 16 -49 0 -5 4 -8 10 -8 7 0 9
-10 7 -25 -3 -13 -2 -22 3 -20 10 7 42 -92 34 -105 -4 -6 -1 -9 6 -8 7 2 13
-1 14 -7 0 -5 4 -16 9 -24 7 -10 5 -12 -5 -7 -8 4 -6 1 4 -7 14 -11 15 -16 5
-20 -8 -3 -5 -6 6 -6 11 -1 17 -4 13 -7 -3 -3 10 -35 29 -70 20 -35 32 -69 28
-75 -4 -7 -3 -9 3 -6 10 6 68 -87 68 -108 0 -5 10 -18 23 -28 20 -17 32 -45
14 -33 -5 3 -9 -1 -9 -8 0 -8 8 -12 21 -9 17 4 18 3 6 -6 -13 -9 -13 -11 3
-11 24 0 21 -19 -5 -31 l-23 -10 23 5 c18 3 22 1 18 -10 -3 -9 -1 -12 4 -9 6
3 10 1 10 -6 0 -7 3 -10 6 -7 3 4 1 16 -6 27 -6 12 -7 21 -1 21 9 0 23 -25 26
-45 0 -5 7 -8 15 -7 8 2 12 1 9 -2 -3 -4 9 -23 27 -43 19 -20 34 -41 34 -47 0
-6 -4 -6 -11 1 -6 6 -18 9 -25 6 -26 -10 -14 -20 21 -18 31 1 42 -6 92 -59 32
-33 57 -64 55 -69 -2 -5 4 -7 13 -4 8 4 15 2 15 -4 0 -5 11 -15 25 -21 13 -6
27 -20 31 -31 5 -16 8 -17 15 -6 7 11 9 11 9 1 0 -7 4 -10 10 -7 6 4 7 -1 3
-11 -5 -13 -2 -15 15 -9 16 5 22 2 22 -10 0 -9 4 -14 9 -10 5 3 12 1 16 -5 4
-6 11 -7 17 -4 7 4 8 2 4 -4 -4 -7 -2 -13 3 -13 21 -3 26 -4 39 -12 6 -5 17
-5 23 -1 8 4 8 0 0 -15 -7 -12 -9 -26 -6 -31 3 -6 -1 -7 -10 -4 -13 5 -13 9
-3 23 7 9 9 13 4 9 -5 -4 -20 1 -34 12 -13 11 -29 17 -35 13 -5 -3 -7 -2 -4 4
3 5 0 10 -8 10 -11 0 -12 -4 -4 -14 8 -9 8 -13 0 -13 -10 0 -15 13 -12 33 0 4
-4 7 -10 7 -5 0 -7 5 -3 11 4 8 0 8 -15 0 -20 -11 -26 -5 -22 22 0 4 -3 6 -8
5 -4 -2 -18 8 -29 22 l-21 25 -28 -30 c-24 -25 -24 -26 -2 -7 36 31 45 27 17
-7 -13 -15 -26 -26 -31 -24 -4 2 -6 -1 -5 -9 2 -7 -4 -12 -12 -10 -8 2 -11 0
-7 -4 10 -10 37 -14 36 -6 -3 20 3 25 12 12 8 -12 9 -10 4 9 -5 16 -4 21 4 16
7 -4 18 -1 26 5 12 10 14 7 10 -19 -3 -28 -2 -30 16 -21 13 8 19 7 19 0 0 -6
-10 -15 -22 -20 -14 -5 -17 -9 -8 -9 9 -1 21 4 27 10 6 6 17 8 24 3 9 -5 8 -9
-6 -14 -10 -4 -19 -14 -21 -23 -1 -10 2 -15 7 -11 5 3 7 10 4 15 -6 8 0 10 45
13 8 1 20 4 25 8 6 4 17 3 25 -3 8 -5 13 -9 10 -10 -3 0 -14 -3 -25 -5 -11 -3
-29 -5 -39 -5 -13 0 -16 -3 -9 -10 8 -8 17 -7 32 0 14 8 21 8 21 1 0 -5 -5
-10 -12 -10 -6 0 -4 -7 5 -18 10 -10 14 -22 10 -25 -3 -4 -1 -7 5 -7 15 0 15
13 2 26 -12 12 -2 47 11 39 4 -3 6 -12 3 -19 -6 -16 51 -76 72 -76 8 0 14 4
14 9 0 15 32 6 46 -14 10 -13 10 -24 3 -39 -9 -19 -9 -19 4 -3 16 20 28 22 25
5 -2 -7 6 -13 18 -14 17 -1 21 4 20 24 -1 14 5 27 13 30 8 3 11 0 7 -7 -4 -6
-2 -11 3 -11 6 0 11 -5 11 -11 0 -5 -4 -7 -10 -4 -6 3 -10 2 -10 -4 0 -5 17
-8 38 -6 20 1 43 -2 50 -7 8 -7 17 -6 28 3 21 17 44 20 45 6 1 -7 2 -18 3 -26
0 -8 8 -16 16 -18 13 -4 13 -3 0 6 -13 9 -12 13 7 26 13 9 20 22 17 30 -4 8
-1 15 5 15 6 0 11 -4 11 -9 0 -5 14 -8 31 -6 26 4 29 2 19 -10 -10 -12 -9 -16
4 -21 8 -3 21 -4 28 -1 7 3 3 6 -10 6 -14 1 -20 5 -17 12 4 6 13 8 21 5 8 -3
24 -1 36 4 23 10 23 10 -2 8 -14 -1 -35 2 -47 6 -19 6 -21 11 -13 26 5 10 7
26 4 34 -3 9 -1 16 6 16 6 0 9 -4 6 -9 -7 -11 22 -23 35 -15 12 7 11 24 -2 24
-5 0 -7 -4 -4 -10 3 -5 1 -10 -5 -10 -7 0 -9 8 -5 20 5 16 3 19 -12 14 -14 -4
-15 -4 -4 4 7 5 18 16 23 23 8 11 9 10 5 -3 -3 -9 1 -22 10 -30 14 -11 15 -11
11 2 -8 24 9 47 34 46 23 -2 25 -7 13 -38 -5 -12 -2 -16 11 -14 10 2 20 9 22
16 3 9 0 10 -9 4 -12 -6 -12 -5 0 9 15 19 15 19 -14 35 -11 6 -15 12 -9 12 6
0 23 -9 38 -21 28 -22 34 -16 14 11 -7 9 -3 6 8 -6 23 -24 42 -21 23 3 -9 9
-8 13 0 13 6 0 11 -5 11 -11 0 -5 4 -8 8 -5 5 3 15 -6 22 -19 15 -28 27 -32
27 -10 0 8 -7 17 -14 19 -8 3 -12 10 -8 15 3 5 -4 13 -16 16 -11 4 -18 9 -16
12 3 2 15 0 26 -7 26 -13 29 4 4 19 -10 6 -13 11 -7 11 6 0 17 -7 24 -15 10
-12 10 -18 0 -30 -16 -20 -1 -19 20 0 29 27 58 26 86 -2 20 -20 23 -28 13 -37
-9 -8 -10 -7 -4 4 6 12 5 12 -5 3 -7 -6 -19 -9 -26 -6 -8 3 -14 1 -14 -5 0 -5
-10 -8 -22 -8 -13 1 -28 -2 -34 -6 -7 -5 -17 -7 -24 -6 -19 4 -18 -35 0 -53
14 -13 18 -13 29 -1 11 11 10 13 -5 10 -11 -2 -20 4 -22 15 -2 9 2 17 8 17 6
0 9 -4 6 -8 -2 -4 10 -9 27 -9 l32 -2 -28 10 c-15 6 -25 15 -21 20 3 5 13 5
25 -1 10 -6 19 -7 20 -3 0 4 4 -1 9 -12 l9 -20 1 20 c2 11 2 24 1 28 -1 5 3 6
9 2 5 -3 7 -17 4 -30 -3 -13 0 -26 6 -30 8 -5 10 -2 6 11 -4 15 0 19 19 20 21
2 24 -1 14 -12 -6 -8 -10 -14 -8 -15 50 -10 66 -5 48 17 -8 10 -8 14 0 14 6 0
16 -9 23 -20 7 -11 17 -20 22 -20 5 0 1 9 -9 20 -22 25 -9 26 18 2 11 -9 17
-11 13 -4 -4 6 -2 12 4 12 6 0 13 -7 17 -16 5 -14 8 -13 18 7 l13 22 6 -21 c4
-12 12 -23 17 -23 5 -1 13 -2 18 -3 5 0 13 -4 17 -8 4 -4 20 2 37 14 26 19 30
19 24 4 -4 -10 -3 -15 3 -11 6 3 10 1 10 -5 0 -6 4 -9 9 -5 5 3 12 1 16 -5 3
-5 -1 -10 -9 -10 -9 0 -16 -5 -16 -11 0 -5 -5 -7 -12 -3 -7 4 -8 3 -4 -5 5 -8
16 -5 37 9 16 12 29 17 29 11 0 -5 -8 -15 -17 -20 -10 -6 -13 -11 -6 -11 6 0
15 5 18 10 5 8 12 7 23 -2 13 -11 13 -9 -1 13 -10 14 -14 29 -10 32 3 4 1 7
-5 7 -7 0 -12 -5 -12 -11 0 -5 -5 -7 -11 -3 -8 4 -7 9 2 15 21 13 29 11 40
-14 22 -49 100 -69 83 -21 -4 12 4 8 24 -14 30 -31 33 -32 59 -19 19 10 35 12
52 6 23 -9 23 -10 7 -28 -14 -15 -15 -21 -4 -27 7 -4 10 -3 5 1 -4 5 0 16 9
26 10 11 12 19 4 24 -12 7 -4 25 11 25 6 0 7 -6 3 -12 -5 -10 -4 -10 5 -2 7 6
14 20 16 30 2 11 4 21 4 24 1 3 5 -2 11 -10 5 -9 5 -19 -1 -26 -6 -7 -4 -15 5
-23 11 -9 17 -6 30 14 l17 26 35 -26 c20 -16 31 -20 28 -11 -3 8 -14 18 -25
21 -11 4 -17 10 -14 15 3 5 13 6 22 3 12 -5 15 -2 10 10 -3 9 -2 19 3 22 4 3
10 0 12 -7 3 -8 9 -8 24 0 10 6 13 12 6 12 -7 0 -10 5 -7 10 5 7 11 8 19 1 8
-7 16 -4 24 10 7 11 17 17 23 13 8 -4 7 0 0 14 -6 12 -7 23 -2 26 5 3 14 -8
21 -25 10 -22 15 -27 21 -17 5 7 6 22 2 33 l-6 20 24 -20 c18 -15 20 -16 10
-3 -8 11 -9 18 -3 18 6 0 14 -5 17 -10 12 -19 25 0 15 21 -8 13 -7 19 0 19 6
0 15 -11 20 -25 5 -14 12 -25 14 -25 3 0 3 7 -1 16 -3 9 0 20 8 26 11 8 10 9
-3 4 -10 -3 -22 2 -27 12 -6 9 -11 13 -11 8 0 -5 -7 -3 -15 4 -10 9 -15 9 -15
1 0 -6 5 -11 12 -11 6 0 8 -3 4 -7 -4 -5 -15 1 -23 12 -12 16 -14 16 -10 3 3
-10 1 -20 -5 -24 -7 -5 -8 -2 -3 6 5 9 4 11 -3 6 -8 -5 -10 -1 -6 11 5 15 4
15 -4 3 -6 -8 -9 -17 -6 -21 4 -8 -23 -22 -46 -23 -8 -1 -16 -7 -16 -13 -4
-37 -4 -38 -14 -23 -6 9 -10 10 -10 3 0 -7 8 -17 18 -22 9 -6 12 -11 6 -11 -6
0 -14 3 -18 8 -4 4 -13 7 -19 7 -7 0 -11 10 -10 21 2 16 -3 20 -20 18 -12 -1
-26 -3 -30 -3 -5 -1 -6 -5 -2 -11 3 -5 12 -7 20 -3 18 6 20 -13 3 -23 -7 -5
-8 -3 -3 6 5 9 4 11 -3 6 -22 -13 -12 -26 14 -20 18 5 25 3 20 -4 -3 -5 -17
-9 -31 -8 -14 2 -22 -1 -18 -7 4 -6 1 -7 -7 -2 -8 5 -11 4 -6 -3 7 -12 -25 -9
-46 4 -7 5 -8 3 -3 -6 5 -9 4 -11 -3 -6 -17 10 -15 29 3 23 8 -4 17 -2 20 2 7
12 -21 22 -40 14 -14 -5 -14 -8 -1 -28 15 -23 6 -29 -21 -12 -8 5 -13 3 -13
-4 0 -7 -3 -9 -7 -6 -3 4 -12 2 -20 -4 -7 -6 -13 -8 -13 -5 0 4 -10 0 -22 -8
-28 -20 -39 -20 -32 -1 4 8 14 15 23 15 9 0 17 8 18 19 1 14 -3 18 -13 14 -8
-3 -14 0 -14 6 0 6 3 10 8 9 14 -3 42 14 36 23 -3 5 0 9 6 9 6 0 10 -6 9 -12
-3 -28 2 -48 12 -48 5 0 7 6 3 13 -5 8 -2 8 9 -2 10 -8 17 -9 17 -3 0 6 -8 16
-17 22 -12 7 -13 10 -3 7 23 -6 50 11 44 28 -4 8 -1 15 5 15 6 0 10 -3 10 -7
-3 -19 2 -33 12 -33 5 0 7 5 4 10 -3 6 -1 10 5 10 7 0 9 -7 6 -16 -5 -12 -2
-15 10 -10 8 3 18 6 21 6 3 0 0 6 -6 14 -9 11 -6 17 15 31 15 9 23 12 19 5 -5
-8 -3 -11 6 -8 8 3 13 14 11 24 -2 17 -2 17 8 2 6 -9 17 -15 25 -12 8 4 12 10
9 15 -3 5 -10 7 -15 4 -5 -3 -6 1 -3 10 6 14 8 13 21 -5 8 -11 19 -20 25 -20
6 0 3 9 -6 19 -14 15 -15 21 -4 27 7 4 10 4 6 -1 -11 -12 11 -35 28 -28 7 3
11 9 8 14 -3 5 -10 7 -15 4 -5 -4 -9 -1 -9 4 0 6 10 10 21 8 12 -1 24 4 26 11
3 6 -1 10 -9 9 -7 -2 -10 -2 -5 0 4 3 5 9 2 14 -4 5 1 6 8 3 8 -3 17 -13 20
-23 3 -14 13 -18 40 -16 29 3 35 0 30 -13 -4 -15 -3 -15 6 -2 7 9 11 10 11 3
0 -6 9 -11 19 -10 11 0 17 5 15 9 -3 4 0 8 5 8 6 0 11 5 11 12 0 6 -9 3 -20
-7 -23 -20 -26 -9 -6 18 9 11 20 15 32 10 18 -6 18 -6 2 10 -9 9 -19 25 -22
35 -4 10 -13 19 -21 19 -9 0 -14 -5 -12 -11 3 -6 10 -10 16 -8 14 3 15 -15 1
-23 -5 -3 -10 -2 -10 4 0 6 -6 8 -14 5 -8 -3 -13 -14 -11 -24 4 -20 -21 -35
-31 -19 -3 6 -12 8 -20 5 -8 -3 -14 -1 -14 4 0 14 23 13 37 -1 9 -9 12 -7 10
10 -1 16 -6 20 -22 15 -14 -4 -16 -3 -6 4 9 7 10 12 2 16 -6 4 -11 13 -11 19
0 7 5 4 11 -5 5 -10 15 -18 21 -18 9 0 9 3 0 12 -7 7 -12 21 -11 32 1 20 1 19
7 -1 7 -21 9 -22 34 -9 17 9 30 11 34 5 3 -5 10 -6 16 -3 7 4 8 2 4 -4 -5 -8
-1 -10 11 -5 15 6 16 4 6 -8 -8 -9 -9 -20 -3 -29 7 -11 10 -12 10 -2 0 7 5 10
10 7 6 -4 8 -11 5 -16 -3 -5 1 -6 9 -3 13 5 12 9 -6 24 l-22 18 27 0 c15 0 24
-4 22 -9 -3 -4 -2 -10 3 -13 19 -12 6 49 -16 71 -13 13 -20 28 -16 35 5 8 2 9
-9 5 -25 -9 -47 2 -41 21 5 13 2 13 -10 -2 -9 -11 -16 -15 -16 -9 0 6 7 16 16
23 13 11 16 10 21 -8 3 -12 10 -22 15 -22 5 0 6 4 3 10 -4 6 1 7 10 3 15 -5
15 -3 4 15 -7 11 -17 19 -21 16 -4 -3 -5 3 -1 12 5 13 3 15 -7 9 -8 -5 -11 -4
-7 3 8 11 25 11 44 -1 6 -4 15 -3 18 3 4 6 15 8 24 5 12 -3 18 0 18 10 0 8 -4
15 -8 15 -5 0 -13 9 -19 20 -6 12 -7 20 -1 20 5 0 11 -7 13 -16 2 -13 6 -12
23 7 15 17 16 21 4 17 -9 -4 -22 -2 -30 4 -11 8 -11 9 3 4 10 -3 20 -1 23 4 4
6 -2 10 -12 11 -13 0 -14 2 -4 6 8 3 20 -2 28 -12 7 -10 16 -16 20 -12 3 4 -2
16 -12 27 -15 17 -16 23 -6 33 11 9 14 9 18 0 3 -7 9 -13 14 -13 6 0 7 5 4 10
-3 6 -2 10 3 10 5 0 9 7 9 15 0 17 -13 20 -20 5 -3 -6 -4 -5 -3 2 2 7 10 13
19 13 9 0 22 6 29 14 11 11 9 12 -9 7 -29 -9 -35 4 -13 31 12 15 20 19 27 12
7 -7 13 -7 17 -1 3 6 -3 13 -14 17 -17 5 -18 9 -7 28 12 20 13 32 7 62 -1 6
-5 1 -10 -10 -7 -15 -8 -11 -6 18 3 32 1 37 -13 32 -13 -5 -13 -4 -4 6 10 10
16 9 31 -4 18 -17 20 -17 33 0 12 14 12 16 -1 11 -9 -3 -24 0 -35 8 -10 8 -15
14 -9 15 5 0 19 2 31 3 12 2 19 -2 16 -7 -4 -6 -1 -7 7 -2 8 5 11 4 6 -3 -3
-6 -3 -13 2 -16 5 -3 8 -21 7 -40 -1 -23 2 -33 9 -29 7 4 7 1 -1 -7 -6 -7 -9
-19 -6 -26 3 -8 0 -14 -7 -14 -6 0 -8 -5 -4 -12 5 -7 3 -8 -7 -3 -11 7 -12 6
-2 -7 7 -8 10 -17 7 -20 -2 -3 2 -8 10 -11 8 -3 20 0 26 8 6 8 19 11 28 8 14
-4 15 -3 2 6 -11 7 -19 6 -32 -6 -27 -24 -21 -2 8 32 15 18 23 23 20 12 -7
-21 20 -35 36 -19 8 8 5 9 -9 6 -15 -4 -19 -1 -18 13 2 30 15 45 29 34 8 -7
12 -5 12 8 0 12 -5 17 -15 13 -9 -3 -12 -1 -7 6 5 8 1 10 -11 5 -15 -6 -16 -4
-6 8 14 17 0 39 -25 39 -7 0 -11 4 -8 9 3 5 -1 11 -9 15 -8 3 -12 12 -9 21 3
8 10 12 15 9 5 -3 7 -10 4 -15 -4 -5 -1 -9 4 -9 14 0 14 17 1 25 -5 3 -10 11
-10 17 0 7 5 6 14 -1 17 -15 28 -1 15 19 -6 11 -9 11 -9 2 0 -10 -4 -10 -19 0
-11 7 -17 17 -13 23 3 5 -3 3 -13 -5 -17 -14 -18 -13 -12 4 5 13 0 24 -18 38
-14 11 -25 24 -25 30 0 7 10 2 23 -10 13 -12 29 -22 36 -22 7 0 9 -5 5 -12 -4
-7 -3 -8 5 -4 14 9 5 26 -14 26 -8 0 -20 9 -28 20 -8 12 -21 18 -29 15 -9 -4
-15 0 -15 10 0 9 6 14 14 11 9 -4 8 2 -4 18 -10 13 -24 21 -32 18 -10 -4 -12
-1 -6 8 6 10 4 12 -9 7 -14 -5 -17 -3 -12 8 3 9 -4 21 -19 31 -25 16 -34 44
-15 44 6 0 9 -6 8 -12 -2 -7 7 -14 20 -16 13 -2 20 -8 16 -14 -4 -7 -2 -8 5
-4 16 10 4 26 -20 26 -11 0 -18 4 -14 9 8 14 -15 25 -28 12 -13 -13 11 -64 26
-54 6 4 7 1 2 -7 -6 -9 -4 -11 5 -5 9 5 11 4 6 -3 -10 -16 -12 -15 -36 10 -11
12 -20 19 -20 15 0 -8 -31 16 -69 53 -14 14 -30 25 -36 25 -5 0 -9 9 -7 19 2
13 -1 16 -10 10 -9 -6 -9 -3 1 10 13 16 13 18 0 16 -27 -4 -39 0 -37 13 2 6
-3 11 -10 9 -8 -1 -11 2 -8 7 3 5 -1 11 -9 15 -8 3 -15 11 -14 18 0 10 2 10 6
0 2 -6 9 -10 14 -6 5 3 9 0 9 -5 0 -6 5 -11 10 -11 6 0 9 3 9 8 -5 30 16 41
33 17 13 -18 8 -28 -7 -15 -9 7 -18 10 -22 6 -3 -3 0 -6 8 -6 12 0 12 -2 0 -9
-10 -7 -11 -12 -1 -27 7 -13 10 -14 7 -3 -3 9 1 16 9 16 7 0 11 -4 9 -8 -3 -4
4 -5 15 -2 11 3 20 0 20 -6 0 -5 -8 -8 -17 -5 -14 5 -15 4 -4 -4 11 -8 11 -10
0 -15 -11 -4 -11 -6 -1 -6 7 -1 10 -6 6 -13 -4 -6 -3 -8 4 -4 6 3 13 2 17 -4
8 -14 25 -3 25 16 0 11 -6 13 -22 8 -21 -6 -21 -5 -9 10 12 15 11 21 -8 47
-12 16 -19 34 -15 40 3 6 -6 23 -20 38 -27 28 -30 49 -11 64 6 4 4 11 -5 17
-8 5 -11 10 -6 10 5 0 1 9 -8 19 -19 21 -28 68 -15 77 5 3 9 -3 9 -12 0 -10 3
-15 6 -11 4 3 4 14 0 23 -5 13 -9 14 -21 4 -10 -8 -15 -9 -15 -2 0 6 5 14 11
17 6 4 8 13 5 21 -3 7 3 18 12 23 9 6 12 11 6 11 -5 0 -15 -5 -22 -12 -6 -6
-15 -8 -19 -3 -5 4 -2 10 5 12 21 8 35 43 22 58 -6 8 -17 12 -24 9 -7 -3 -13
2 -13 11 0 10 6 13 17 10 23 -7 33 20 14 35 -8 7 -14 17 -14 23 0 5 9 2 20 -8
11 -10 20 -15 20 -10 0 4 -7 13 -17 20 -15 11 -14 14 5 33 12 12 18 22 13 22
-6 0 -13 -5 -16 -10 -4 -6 -11 -7 -17 -4 -6 4 -1 13 13 21 13 8 16 12 7 9 -12
-3 -15 -1 -11 9 4 11 10 12 25 4 13 -7 18 -7 14 -1 -3 6 0 13 6 15 7 3 -4 3
-26 1 -32 -3 -37 -2 -27 10 6 7 24 12 41 10 17 -2 30 1 30 7 0 6 -4 7 -10 4
-6 -3 -10 0 -10 7 0 10 -3 9 -10 -2 -5 -8 -12 -12 -15 -8 -3 3 1 13 9 21 12
12 13 17 3 20 -7 3 -5 6 6 6 9 1 17 5 17 11 0 5 -6 7 -14 4 -8 -3 -17 0 -21 6
-3 6 -3 10 2 9 4 -1 15 -1 23 0 13 1 13 2 0 11 -8 5 -13 10 -10 11 3 0 13 2
22 4 13 2 17 -2 14 -18 -2 -12 -1 -16 1 -9 3 7 10 9 16 5 7 -4 4 5 -6 21 -20
30 -18 46 3 21 14 -17 36 -20 44 -6 4 5 -4 7 -16 4 -21 -4 -22 -3 -5 10 9 8
17 18 17 22 0 5 -9 0 -20 -10 -11 -10 -20 -14 -20 -9 1 12 30 50 36 46 2 -2
10 -1 17 1 9 4 9 6 -1 6 -7 1 -10 6 -7 11 4 7 13 6 26 -1 12 -6 23 -8 26 -6 2
3 -5 8 -16 12 -12 3 -21 11 -21 16 0 6 5 7 10 4 6 -3 10 -1 10 5 0 7 -7 9 -16
6 -10 -4 -13 -2 -8 6 5 7 3 8 -6 3 -9 -6 -11 -4 -5 5 5 9 4 11 -4 6 -6 -4 -9
-12 -6 -17 4 -5 1 -10 -4 -10 -6 -1 -15 -3 -21 -4 -5 -1 -15 -3 -21 -4 -5 0
-8 -5 -4 -11 3 -5 11 -7 19 -4 7 3 13 -2 13 -10 0 -8 -7 -18 -14 -20 -8 -3
-12 -2 -9 3 3 4 -10 24 -28 44 -19 21 -30 37 -26 37 4 0 13 -7 20 -15 7 -8 19
-15 27 -15 11 0 8 6 -8 20 -13 10 -18 19 -11 20 6 0 12 -3 12 -8 0 -4 9 -13
19 -19 18 -11 19 -9 16 38 -2 30 1 49 8 49 6 0 7 -3 4 -7 -4 -3 -2 -12 4 -20
9 -9 8 -13 0 -13 -6 0 -11 -5 -11 -11 0 -8 4 -8 14 0 8 7 12 21 9 31 -3 11 -1
20 4 20 18 0 22 -13 12 -33 -6 -10 -7 -17 -2 -14 5 4 10 0 10 -8 0 -8 -5 -11
-11 -8 -6 3 -5 0 2 -8 11 -12 14 -12 21 0 5 8 7 21 3 30 -3 9 -2 13 3 9 4 -4
14 -3 22 3 17 15 17 -1 -1 -27 -15 -22 -18 -66 -4 -58 5 3 5 10 2 16 -7 12 15
58 28 58 5 0 7 -3 5 -7 -3 -5 6 -9 20 -10 25 -1 25 -1 -5 17 -31 19 -49 40
-35 40 5 0 14 -5 20 -11 17 -17 27 9 11 28 -11 14 -10 15 8 9 14 -4 26 -1 35
11 11 15 11 16 -1 6 -20 -18 -35 -16 -20 2 7 8 8 15 3 15 -5 0 -10 6 -10 14 0
8 11 14 24 14 18 0 21 -4 13 -13 -8 -9 -7 -14 3 -18 9 -3 13 2 12 16 -1 13 -9
22 -18 22 -9 0 -22 6 -29 14 -11 11 -10 13 2 9 8 -3 23 -1 32 4 15 7 16 13 6
33 -12 26 -28 34 -28 13 0 -18 -14 0 -17 24 -3 18 -1 19 14 7 17 -13 17 -13 0
7 -16 20 -14 34 5 34 5 0 6 -4 3 -10 -3 -5 -1 -10 4 -10 14 0 14 17 0 25 -5 4
-19 -1 -30 -11 -11 -10 -19 -12 -19 -6 0 7 9 17 20 24 11 7 20 19 20 27 0 8
-9 2 -21 -13 -12 -15 -27 -25 -34 -23 -6 3 -12 -1 -12 -9 0 -7 4 -11 8 -8 12
7 2 -36 -13 -53 -10 -12 -9 -14 7 -11 10 1 20 -4 22 -12 4 -13 3 -13 -6 0 -7
10 -11 11 -11 3 0 -7 -5 -12 -11 -10 -6 1 -14 -4 -16 -11 -4 -11 -1 -12 14 -4
15 8 20 8 20 -3 0 -7 -6 -11 -14 -8 -7 3 -13 0 -13 -7 0 -6 4 -9 9 -5 5 3 13
1 16 -5 5 -8 11 -7 21 1 16 13 19 -2 3 -18 -8 -8 -8 -13 0 -17 16 -10 13 -26
-4 -26 -8 0 -14 3 -13 8 1 4 -2 17 -6 30 -6 18 -11 21 -21 12 -8 -7 -18 -9
-23 -6 -5 3 -16 -4 -25 -15 -9 -10 -22 -19 -28 -19 -7 0 1 10 15 21 20 16 24
24 15 29 -7 5 -19 6 -28 3 -11 -3 -11 -1 2 7 18 11 18 12 0 26 -17 14 -16 14
5 4 12 -6 20 -15 17 -19 -6 -11 25 -24 34 -15 3 4 0 9 -7 11 -10 4 -9 9 4 24
17 19 7 28 -12 9 -6 -6 -16 3 -27 23 -17 32 -17 32 2 10 24 -28 26 -28 28 -3
1 11 -2 18 -6 15 -5 -2 -14 2 -22 11 -10 13 -9 16 9 21 12 3 19 9 16 14 -3 5
2 6 11 3 10 -4 15 -2 13 7 -2 8 3 13 10 12 18 -4 15 28 -5 42 -20 15 -26 45
-11 62 7 9 7 13 0 13 -5 0 -12 -7 -16 -15 -4 -11 -11 -9 -34 13 -15 15 -26 30
-24 35 2 4 -2 7 -9 7 -6 0 -28 17 -47 38 -20 20 -32 30 -27 22 8 -13 6 -13 -8
-1 -9 7 -14 18 -10 24 3 6 1 7 -5 3 -6 -4 -31 6 -54 21 -24 15 -45 28 -48 28
-31 5 -80 32 -76 42 3 7 1 15 -5 18 -5 4 -8 3 -7 -2 3 -9 -5 -13 -28 -13 -8 0
-13 3 -11 8 3 4 -7 7 -21 7 -15 1 -52 4 -82 9 -30 4 -77 7 -103 6 -38 -1 -47
2 -41 12 6 10 5 10 -7 1 -8 -6 -35 -13 -60 -16 -43 -4 -47 -3 -46 17 0 11 -2
27 -4 35 -2 7 1 15 7 18 10 3 14 -8 15 -49 0 -10 4 -18 8 -18 11 0 10 33 -2
48 -6 8 -6 12 1 12 6 0 16 -8 21 -17 10 -17 10 -17 11 0 0 10 4 16 8 13 4 -2
13 4 20 15 14 23 7 25 -14 4 -20 -19 -31 -19 -31 0 0 9 6 14 14 11 10 -4 11
-1 3 14 -13 25 -13 27 5 27 9 0 14 -6 11 -12 -5 -14 22 -13 48 2 19 10 18 11
-3 18 -11 3 -19 11 -15 16 3 5 10 7 15 4 5 -4 9 -1 9 4 0 16 -8 14 -42 -10
-26 -19 -29 -20 -26 -4 2 12 -4 19 -19 20 -12 1 -20 -2 -18 -6z m19 -41 c-1
-13 -3 -25 -4 -28 -1 -3 -2 -8 -1 -12 0 -5 -3 -8 -9 -8 -5 0 -10 5 -10 12 0 6
-10 3 -22 -8 -13 -10 -20 -15 -16 -10 4 5 2 16 -5 24 -12 15 -6 22 20 24 5 0
14 9 21 20 17 23 30 16 26 -14z m70 0 c-3 -5 -12 -4 -20 3 -19 16 -18 18 6 12
11 -3 17 -9 14 -15z m-464 -44 c0 -8 -19 -13 -24 -6 -3 5 1 9 9 9 8 0 15 -2
15 -3z m66 -51 c10 6 32 -8 52 -35 11 -14 11 -16 -5 -13 -10 1 -26 -2 -37 -7
-12 -6 -22 -6 -28 0 -13 13 -1 35 14 26 6 -4 5 -10 -3 -15 -10 -6 -10 -9 -2
-9 17 0 23 14 13 30 -7 11 -11 11 -24 1 -13 -11 -16 -11 -16 3 0 9 -5 16 -10
16 -6 0 -5 6 2 14 11 11 14 11 24 -2 6 -8 15 -13 20 -9z m238 -5 c-3 -5 -12
-4 -20 3 -11 9 -14 9 -14 0 0 -7 -5 -9 -11 -6 -6 5 -4 12 8 20 19 14 48 1 37
-17z m-279 -47 c-8 -13 -45 -9 -38 4 18 31 26 36 35 21 5 -9 7 -20 3 -25z
m1154 -398 c-9 -10 -8 -13 2 -13 9 0 10 -3 4 -8 -7 -4 -2 -16 13 -32 15 -16
21 -18 16 -7 -3 9 -2 17 4 17 5 0 12 -7 16 -15 5 -14 -6 -20 -28 -16 -5 1 -17
-5 -26 -14 -19 -18 -23 -4 -6 23 4 7 3 19 -3 25 -14 17 -10 54 6 54 9 0 10 -4
2 -14z m-139 -129 c0 -8 -19 -13 -24 -6 -3 5 1 9 9 9 8 0 15 -2 15 -3z m115
-24 c3 -13 9 -28 15 -34 5 -5 10 -15 10 -20 0 -6 -7 -3 -14 7 -11 13 -16 15
-24 5 -6 -7 -12 -17 -14 -23 -1 -5 -9 -10 -16 -11 -6 -1 -9 2 -6 7 8 14 -17
41 -32 35 -8 -3 -11 0 -7 10 5 13 17 18 37 15 5 -1 6 5 3 13 -4 10 0 14 14 11
10 -2 19 1 19 7 0 18 10 3 15 -22z m-187 -5 c-3 -3 -9 2 -12 12 -6 14 -5 15 5
6 7 -7 10 -15 7 -18z m87 -13 c-3 -3 -11 0 -18 7 -9 10 -8 11 6 5 10 -3 15 -9
12 -12z m-27 -76 c0 -22 -2 -23 -19 -8 -23 20 -24 23 -2 15 11 -4 14 -3 9 5
-4 7 -3 12 2 12 5 0 10 -11 10 -24z m-65 -1 c-3 -9 -8 -14 -10 -11 -3 3 -2 9
2 15 9 16 15 13 8 -4z m37 -90 c12 -19 27 -33 33 -29 7 3 3 -1 -7 -10 -10 -8
-23 -13 -27 -10 -12 7 -11 -9 1 -24 6 -6 7 -10 4 -7 -10 7 -35 -16 -28 -26 3
-5 -2 -6 -10 -3 -16 6 -22 -7 -9 -20 11 -11 12 -36 2 -36 -6 0 -8 -4 -5 -9 3
-4 -3 -16 -14 -26 -13 -12 -17 -22 -11 -29 6 -7 6 -18 1 -26 -5 -9 -5 -19 2
-27 13 -16 -8 -46 -26 -37 -6 3 1 -4 17 -16 15 -12 24 -26 21 -31 -3 -6 -12
-2 -21 8 -8 10 -12 13 -9 6 4 -6 2 -14 -3 -17 -16 -10 -5 -41 15 -41 17 0 20
-6 16 -35 -1 -5 -8 -7 -15 -4 -9 3 -13 -5 -13 -26 0 -21 4 -29 13 -26 7 3 13
1 13 -5 0 -5 -7 -12 -15 -16 -14 -5 -14 -7 -1 -22 8 -9 14 -25 12 -36 -2 -11
4 -27 14 -35 17 -16 22 -61 8 -71 -5 -3 5 -20 22 -37 35 -37 36 -41 13 -37
-10 1 -23 -1 -28 -6 -13 -9 -26 -1 -41 26 -15 27 -46 33 -38 8 5 -15 4 -15 -5
-3 -16 23 5 37 31 21 18 -11 20 -11 15 3 -4 10 -1 19 9 23 13 5 13 7 2 14 -10
7 -10 9 -1 9 8 0 11 9 9 23 -2 12 -9 21 -16 19 -6 -1 -8 3 -4 9 5 8 3 9 -7 4
-12 -8 -12 -6 0 8 11 14 11 17 0 17 -12 0 -12 2 -1 9 11 7 10 9 -3 14 -10 5
-14 3 -9 -5 4 -6 3 -8 -3 -5 -6 4 -14 -1 -17 -10 -5 -11 1 -23 16 -34 25 -20
32 -65 11 -74 -23 -8 -35 4 -27 28 5 18 4 20 -7 10 -16 -16 -29 -17 -29 -2 0
5 4 8 9 5 5 -3 14 1 21 9 9 11 8 20 -10 45 -12 16 -19 34 -15 39 3 5 1 12 -4
15 -5 4 -12 -3 -16 -14 -3 -11 -11 -20 -16 -20 -6 0 4 20 21 44 35 51 39 67
10 41 -11 -10 -20 -14 -20 -9 0 11 34 38 46 35 5 0 10 -5 10 -11 1 -5 2 -15 3
-21 0 -5 6 -7 12 -3 8 4 7 9 -2 15 -8 5 -11 9 -6 9 4 0 0 15 -10 33 -9 17 -16
35 -15 39 1 4 -8 10 -19 13 -16 5 -18 10 -8 21 6 7 15 11 20 8 5 -3 9 0 9 5 0
16 -26 13 -40 -4 -7 -8 -16 -15 -21 -15 -4 0 2 10 14 23 15 16 27 21 39 15 23
-11 24 -11 25 13 1 15 -1 18 -10 10 -9 -7 -17 -7 -27 1 -13 8 -12 9 2 5 9 -3
22 2 30 10 11 14 11 16 -4 11 -9 -4 -24 0 -35 8 -17 14 -17 14 1 7 13 -4 17
-3 12 5 -4 7 -2 20 4 29 8 14 10 14 9 3 -3 -27 1 -40 10 -40 12 0 11 41 -2 57
-4 6 -16 9 -25 6 -14 -4 -15 -3 -2 5 8 6 19 7 25 2 6 -5 17 2 28 16 18 25 10
33 -11 12 -6 -6 -15 -9 -18 -5 -4 4 0 9 9 13 15 5 15 8 1 29 -10 16 -12 25 -4
30 6 3 10 3 9 -2 -1 -4 -1 -14 0 -22 1 -19 16 -4 16 16 0 9 9 21 20 27 23 13
44 37 45 51 0 5 -5 4 -12 -3 -15 -15 -28 -15 -28 -1 0 5 4 8 9 5 5 -3 14 1 21
9 10 12 10 18 0 30 -8 9 -8 15 -2 15 6 0 12 -6 15 -12 2 -7 7 -10 11 -7 4 4 0
14 -9 23 -9 9 -12 16 -7 16 6 0 20 -16 32 -35z m72 12 c-7 -8 -10 -17 -7 -20
3 -4 2 -4 -2 -1 -11 8 -10 28 1 36 16 10 20 0 8 -15z m-162 -52 c0 -8 -2 -15
-4 -15 -2 0 -6 7 -10 15 -3 8 -1 15 4 15 6 0 10 -7 10 -15z m-36 -37 c-3 -4
-9 -8 -15 -8 -5 0 -9 4 -9 8 0 5 7 9 15 9 8 0 12 -4 9 -9z m56 7 c0 -7 -30
-13 -34 -7 -3 4 4 9 15 9 10 1 19 0 19 -2z m-103 -60 c0 -8 -4 -12 -9 -9 -5 3
-6 10 -3 15 9 13 12 11 12 -6z m43 -30 c0 -5 -5 -3 -10 5 -5 8 -10 20 -10 25
0 6 5 3 10 -5 5 -8 10 -19 10 -25z m-33 -21 c-3 -3 -12 -4 -19 -1 -8 3 -5 6 6
6 11 1 17 -2 13 -5z m7 -59 c-4 -8 -8 -15 -10 -15 -2 0 -4 7 -4 15 0 8 4 15
10 15 5 0 7 -7 4 -15z m-74 -55 c0 -5 -2 -10 -4 -10 -3 0 -8 5 -11 10 -3 6 -1
10 4 10 6 0 11 -4 11 -10z m60 0 c0 -5 -4 -10 -10 -10 -5 0 -10 5 -10 10 0 6
5 10 10 10 6 0 10 -4 10 -10z m0 -30 c0 -5 -5 -10 -11 -10 -5 0 -7 5 -4 10 3
6 8 10 11 10 2 0 4 -4 4 -10z m-60 -10 c0 -5 -5 -10 -11 -10 -5 0 -7 5 -4 10
3 6 8 10 11 10 2 0 4 -4 4 -10z m0 -40 c0 -5 -2 -10 -4 -10 -3 0 -8 5 -11 10
-3 6 -1 10 4 10 6 0 11 -4 11 -10z m87 -72 c-7 -4 -16 -8 -22 -8 -5 0 -3 5 5
10 12 7 12 12 2 22 -6 6 -12 17 -12 23 0 5 9 -1 20 -15 13 -18 15 -27 7 -32z
m-34 29 c3 -8 2 -20 -3 -26 -5 -9 -7 -4 -7 13 0 29 2 32 10 13z m-42 -70 c-10
-9 -11 -8 -5 6 3 10 9 15 12 12 3 -3 0 -11 -7 -18z m42 -20 c3 -8 2 -20 -3
-26 -5 -9 -7 -4 -7 13 0 29 2 32 10 13z m27 -81 c0 -2 -7 -7 -16 -10 -8 -3
-12 -2 -9 4 6 10 25 14 25 6z m60 -6 c0 -5 -4 -10 -10 -10 -5 0 -10 5 -10 10
0 6 5 10 10 10 6 0 10 -4 10 -10z m-45 -21 c11 -16 1 -19 -13 -3 -7 8 -8 14
-3 14 5 0 13 -5 16 -11z m-15 -13 c0 -3 -4 -8 -10 -11 -5 -3 -10 -1 -10 4 0 6
5 11 10 11 6 0 10 -2 10 -4z m20 -66 c0 -5 -2 -10 -4 -10 -3 0 -8 5 -11 10 -3
6 -1 10 4 10 6 0 11 -4 11 -10z m44 -55 c3 -8 1 -15 -4 -15 -6 0 -10 7 -10 15
0 8 2 15 4 15 2 0 6 -7 10 -15z m351 -385 c16 -17 23 -30 16 -30 -11 0 -11 -3
-1 -15 7 -8 16 -12 21 -9 5 3 9 0 9 -6 0 -6 5 -8 11 -4 6 3 4 -8 -5 -24 -10
-20 -12 -33 -6 -37 6 -4 8 -10 5 -15 -2 -4 9 -13 25 -20 16 -7 27 -16 24 -21
-3 -5 -11 -7 -17 -3 -7 3 -3 -3 9 -13 l21 -19 -40 -44 c-22 -25 -35 -35 -28
-22 7 12 9 27 5 33 -3 6 3 13 15 16 23 6 27 18 9 29 -7 4 -8 3 -4 -4 4 -7 2
-10 -7 -6 -8 3 -13 15 -13 27 1 12 -2 28 -7 35 -5 6 -6 12 -2 12 4 0 2 7 -5
15 -7 8 -16 13 -20 10 -5 -3 -11 -1 -15 5 -4 6 -11 7 -17 4 -7 -4 -8 -2 -4 4
4 7 3 12 -3 12 -5 0 -12 -7 -14 -15 -3 -11 -4 -10 -3 2 1 13 9 17 25 15 20 -2
22 0 11 13 -7 8 -9 15 -4 15 4 0 3 5 -3 11 -6 6 -9 19 -6 28 4 14 3 14 -6 1
-6 -8 -8 -23 -5 -32 3 -12 0 -18 -10 -18 -18 0 -30 16 -17 25 5 3 8 14 6 25
-2 11 1 22 6 25 5 4 7 11 4 16 -13 21 13 7 40 -21z m-61 -79 c3 -5 -2 -15 -12
-22 -15 -12 -16 -12 -5 2 7 9 10 19 6 22 -3 4 -4 7 0 7 3 0 8 -4 11 -9z m1
-41 c-3 -5 -1 -10 5 -10 6 0 8 -5 4 -11 -4 -8 -9 -7 -15 2 -7 12 -3 29 7 29 3
0 2 -4 -1 -10z m-20 -79 c-9 -8 -36 -10 -30 -2 2 4 11 8 20 8 8 0 13 -3 10 -6z
m22 -14 c0 -8 -6 -14 -14 -14 -9 0 -10 4 -2 14 6 7 12 13 14 13 1 0 2 -6 2
-13z m26 -34 c-7 -2 -19 -2 -25 0 -7 3 -2 5 12 5 14 0 19 -2 13 -5z m-21 -59
c-11 -19 -42 -28 -42 -12 0 6 7 7 16 4 12 -5 15 -2 10 9 -3 9 -2 13 4 10 6 -3
10 -1 10 6 0 7 3 10 6 6 3 -3 1 -13 -4 -23z m-22 -55 c0 -5 -4 -9 -8 -9 -5 0
-9 7 -9 15 0 8 4 12 9 9 4 -3 8 -9 8 -15z m-40 6 c0 -7 -30 -13 -34 -7 -3 4 4
9 15 9 10 1 19 0 19 -2z m11 -47 c-10 -11 -11 -10 -5 5 5 14 2 16 -12 11 -16
-5 -16 -4 -4 5 20 14 39 -4 21 -21z m-56 -118 c-3 -4 0 -10 7 -12 7 -3 5 -7
-6 -11 -10 -4 -15 -3 -11 3 3 6 0 10 -7 11 -10 0 -10 2 0 6 6 2 9 10 6 15 -4
7 -2 8 5 4 6 -4 9 -11 6 -16z m-55 0 c0 -5 -5 -10 -11 -10 -5 0 -7 5 -4 10 3
6 8 10 11 10 2 0 4 -4 4 -10z m-23 -35 c0 -8 -4 -12 -9 -9 -5 3 -6 10 -3 15 9
13 12 11 12 -6z m-26 -38 c-10 -9 -11 -8 -5 6 3 10 9 15 12 12 3 -3 0 -11 -7
-18z m-31 -7 c0 -5 -5 -10 -11 -10 -5 0 -7 5 -4 10 3 6 8 10 11 10 2 0 4 -4 4
-10z m97 -77 l35 -38 -23 35 -22 35 31 -29 c22 -21 28 -32 20 -37 -14 -9 -48
7 -48 22 0 6 -4 8 -9 5 -12 -8 -41 3 -41 15 0 4 7 6 15 3 8 -4 15 -2 15 4 0 6
-6 13 -12 15 -7 3 -9 6 -4 6 5 1 24 -16 43 -36z m-153 -2 c-8 -8 -34 -10 -38
-2 -3 4 6 7 19 7 14 0 22 -2 19 -5z m79 -12 c-8 -8 -13 -7 -18 2 -5 8 -4 10 3
5 7 -4 12 -2 12 5 0 7 3 9 7 6 4 -4 2 -12 -4 -18z m-73 -58 c0 -8 -1 -12 -3
-10 -1 2 -11 15 -22 28 l-20 24 23 -14 c12 -8 22 -20 22 -28z m-1035 -11 c3
-5 1 -10 -4 -10 -6 0 -11 5 -11 10 0 6 2 10 4 10 3 0 8 -4 11 -10z m921 -5
c-1 -8 -5 -17 -8 -21 -5 -4 -4 16 1 34 3 9 9 -1 7 -13z m218 -10 c-19 -29 -33
-33 -30 -7 2 9 8 17 14 17 6 0 14 3 18 8 15 15 14 6 -2 -18z m-2069 -14 c-3
-6 -11 -11 -17 -11 -6 0 -6 6 2 15 14 17 26 13 15 -4z m850 9 c3 -5 1 -10 -4
-10 -6 0 -11 5 -11 10 0 6 2 10 4 10 3 0 8 -4 11 -10z m259 1 c3 -5 -2 -15
-12 -22 -15 -12 -16 -12 -5 2 7 9 10 19 6 22 -3 4 -4 7 0 7 3 0 8 -4 11 -9z
m786 -1 c0 -5 -4 -10 -10 -10 -5 0 -10 5 -10 10 0 6 5 10 10 10 6 0 10 -4 10
-10z m-1150 -16 c0 -8 -19 -13 -24 -6 -3 5 1 9 9 9 8 0 15 -2 15 -3z m27 -9
c0 -8 -4 -12 -9 -9 -5 3 -6 10 -3 15 9 13 12 11 12 -6z m1003 5 c0 -5 -5 -10
-11 -10 -5 0 -7 5 -4 10 3 6 8 10 11 10 2 0 4 -4 4 -10z m-766 -11 c-5 -9 1
-10 22 -5 24 5 26 4 11 -5 -21 -12 -51 -4 -42 11 3 5 8 10 11 10 3 0 2 -5 -2
-11z m124 -14 c-3 -3 -9 2 -12 12 -6 14 -5 15 5 6 7 -7 10 -15 7 -18z m-1098
5 c0 -5 -4 -10 -10 -10 -5 0 -10 5 -10 10 0 6 5 10 10 10 6 0 10 -4 10 -10z
m676 -24 c2 -14 1 -26 -3 -26 -5 0 -9 14 -9 31 -2 35 5 33 12 -5z m239 24 c-3
-5 -11 -10 -16 -10 -6 0 -7 5 -4 10 3 6 11 10 16 10 6 0 7 -4 4 -10z m140 -8
c-3 -3 -11 0 -18 7 -9 10 -8 11 6 5 10 -3 15 -9 12 -12z m105 8 c0 -5 -4 -10
-10 -10 -5 0 -10 5 -10 10 0 6 5 10 10 10 6 0 10 -4 10 -10z m-355 -18 c-3 -3
-11 0 -18 7 -9 10 -8 11 6 5 10 -3 15 -9 12 -12z m267 -4 c-17 -17 -15 -28 4
-28 8 0 13 4 10 9 -6 10 23 26 39 22 6 -2 17 -4 25 -6 9 -1 14 -11 13 -23 l-3
-21 38 20 c20 12 31 15 25 8 -18 -18 -16 -34 1 -20 11 9 15 8 20 -5 5 -13 9
-14 21 -4 8 7 15 18 15 26 0 7 4 15 9 18 14 9 1 -32 -15 -45 -24 -20 -15 -31
10 -12 13 10 22 22 19 26 -3 5 4 4 16 -3 15 -7 20 -17 16 -29 -3 -12 0 -18 10
-18 8 0 14 7 13 16 -2 10 5 16 19 17 13 1 20 -3 16 -9 -4 -7 1 -8 13 -3 15 6
17 5 7 -5 -10 -10 -16 -10 -25 -1 -20 20 -32 13 -13 -8 18 -20 35 -22 47 -6 4
6 12 5 21 -3 12 -9 16 -9 20 1 4 10 7 10 15 -1 6 -8 12 -9 16 -3 3 6 2 13 -4
17 -5 3 -10 10 -10 15 0 5 11 -1 25 -14 18 -16 23 -29 19 -47 -3 -13 -6 -29
-6 -36 -1 -7 -5 -10 -10 -7 -5 3 -5 11 -2 17 4 8 2 7 -7 -1 -12 -11 -12 -14 1
-22 8 -5 21 -5 32 1 10 5 18 6 18 2 0 -4 5 -1 10 7 5 8 14 16 20 16 5 1 11 2
13 3 1 2 13 4 27 6 14 2 19 1 11 -2 -11 -5 -11 -7 0 -15 11 -8 10 -9 -3 -5 -9
3 -19 -1 -22 -9 -4 -11 -15 -14 -36 -10 -16 2 -30 1 -30 -4 0 -23 -33 -17 -57
10 -18 21 -30 27 -37 20 -5 -5 -14 -10 -18 -10 -11 0 -6 23 7 33 6 5 2 6 -8 3
-13 -4 -16 -2 -11 7 5 8 2 7 -9 -2 -19 -15 -23 -26 -5 -15 7 5 8 3 3 -6 -6 -9
-4 -11 5 -5 9 5 11 4 6 -4 -4 -7 2 -14 15 -19 15 -6 18 -11 11 -16 -8 -4 -28
9 -52 35 -22 24 -43 40 -46 36 -4 -4 -13 -2 -21 5 -7 6 -16 8 -20 4 -3 -3 -1
-6 5 -6 7 0 12 -4 12 -10 0 -19 -19 -10 -26 12 -6 19 -7 19 -16 4 -5 -9 -13
-14 -18 -11 -4 3 -11 -2 -14 -11 -6 -16 -26 -11 -26 7 0 6 4 8 9 4 13 -8 22
10 15 29 -3 9 -11 13 -18 9 -6 -4 -14 -8 -18 -9 -5 -1 -11 -2 -14 -3 -4 0 -1
-8 6 -16 7 -9 10 -18 7 -21 -3 -3 -13 6 -22 20 -16 24 -53 27 -38 2 4 -6 0 -6
-9 2 -9 7 -22 11 -29 10 -8 -2 -13 3 -11 10 2 13 -10 16 -22 5 -3 -4 -26 -8
-51 -8 -32 -2 -46 2 -50 14 -3 8 -3 12 1 8 11 -11 43 23 37 39 -3 8 -9 12 -13
9 -5 -3 -12 0 -16 7 -4 7 -4 10 1 6 4 -4 14 -3 21 3 15 12 34 4 34 -14 0 -7
-4 -6 -10 3 -5 8 -12 12 -15 8 -4 -3 4 -16 17 -28 15 -13 17 -19 7 -15 -10 4
-20 2 -24 -4 -3 -7 0 -8 9 -5 9 3 16 2 16 -4 0 -6 -6 -13 -12 -15 -10 -4 -10
-6 -1 -6 15 -1 36 36 28 49 -6 10 16 52 24 44 3 -2 -1 -10 -7 -16z m697 19
c-2 -1 -13 -9 -24 -17 -19 -14 -19 -14 -6 3 7 9 18 17 24 17 6 0 8 -1 6 -3z
m-1725 -23 c5 -14 4 -15 -9 -4 -17 14 -19 20 -6 20 5 0 12 -7 15 -16z m1169 4
c-2 -5 -10 -8 -18 -8 -8 0 -16 3 -18 8 -3 4 5 7 18 7 13 0 21 -3 18 -7z m477
7 c0 -2 -6 -8 -13 -14 -10 -8 -14 -7 -14 2 0 8 6 14 14 14 7 0 13 -1 13 -2z
m30 -26 c0 -5 -8 -9 -17 -8 -11 0 -13 3 -5 6 6 2 9 10 6 15 -4 7 -2 8 4 4 7
-4 12 -11 12 -17z m245 -7 c5 -13 2 -13 -15 3 -14 13 -20 14 -20 5 0 -7 -3
-11 -6 -7 -3 3 -3 10 0 16 9 13 33 4 41 -17z m-1394 -5 c-10 -9 -11 -8 -5 6 3
10 9 15 12 12 3 -3 0 -11 -7 -18z m69 -12 c0 -5 -5 -3 -10 5 -5 8 -10 20 -10
25 0 6 5 3 10 -5 5 -8 10 -19 10 -25z m620 20 c0 -8 -2 -15 -4 -15 -2 0 -6 7
-10 15 -3 8 -1 15 4 15 6 0 10 -7 10 -15z m104 0 c-4 -8 -11 -15 -16 -15 -6 0
-5 6 2 15 7 8 14 15 16 15 2 0 1 -7 -2 -15z m543 -15 c0 -16 -1 -29 -2 -27
-13 15 -25 48 -16 43 6 -4 11 -2 11 3 0 6 2 11 3 11 2 0 4 -13 4 -30z m-473
11 c3 -5 -1 -11 -9 -15 -8 -3 -17 0 -21 6 -4 7 -3 8 4 4 7 -4 12 -2 12 3 0 13
7 14 14 2z m-894 -5 c0 -2 -7 -7 -16 -10 -8 -3 -12 -2 -9 4 6 10 25 14 25 6z
m-303 -19 c-1 -5 4 -12 12 -15 8 -3 11 0 7 7 -4 6 -2 11 4 11 7 0 10 -7 6 -15
-6 -17 9 -21 17 -5 3 6 4 5 3 -2 -2 -7 -14 -12 -27 -10 -19 2 -21 0 -11 -10
19 -19 41 -18 47 3 4 10 11 19 16 19 6 0 8 4 5 9 -3 5 1 11 9 15 20 7 15 -16
-7 -32 -30 -22 -20 -30 16 -13 18 9 31 20 28 25 -3 5 0 6 7 2 14 -9 5 -26 -13
-26 -17 0 -16 -28 2 -35 10 -3 12 0 8 10 -4 13 -2 14 14 5 11 -6 21 -6 25 -1
3 5 -3 12 -12 14 -10 3 -4 4 12 4 17 -1 33 -6 37 -11 4 -6 12 -5 22 3 11 9 16
10 16 2 0 -6 -6 -11 -12 -11 -9 0 -9 -3 1 -9 19 -12 46 19 28 32 -8 6 -7 7 3
4 8 -2 14 -10 13 -16 -3 -12 10 -15 20 -4 4 3 2 12 -4 20 -8 8 -8 13 -1 13 6
0 12 -5 14 -11 2 -6 17 -11 32 -11 16 0 23 -4 16 -8 -8 -5 -7 -9 5 -13 12 -5
14 -11 6 -26 -6 -10 -7 -21 -4 -25 3 -3 1 -6 -6 -6 -8 0 -11 6 -7 16 5 13 3
14 -6 7 -7 -5 -23 -8 -35 -7 -24 1 -31 -10 -12 -22 8 -4 7 -10 -1 -18 -8 -8
-14 -7 -21 6 -10 18 -23 18 -56 0 -15 -8 -24 -9 -28 -2 -4 6 -15 8 -25 5 -19
-6 -54 31 -44 47 3 4 1 8 -4 8 -14 0 -37 -30 -37 -48 0 -8 -7 -18 -15 -20 -13
-5 -13 -3 0 13 8 10 10 16 5 13 -14 -8 -25 0 -53 36 -12 16 -22 22 -22 15 -1
-8 -8 -2 -16 14 -16 29 -27 37 -18 12 4 -8 1 -15 -6 -15 -6 0 -9 4 -6 8 2 4
-4 8 -15 8 -19 0 -19 -1 -2 -13 9 -8 23 -11 30 -9 15 6 18 -10 3 -19 -14 -8
-47 15 -59 42 -10 21 -9 23 8 13 26 -13 32 -13 30 3 -3 26 2 32 30 32 16 1 29
-3 28 -8z m264 -4 c13 -16 12 -17 -3 -4 -17 13 -22 21 -14 21 2 0 10 -8 17
-17z m-28 -7 c4 -11 1 -13 -10 -9 -12 5 -14 3 -8 -7 5 -9 4 -11 -4 -6 -9 6 -9
11 0 22 14 17 16 17 22 0z m110 -3 c-3 -7 -6 -13 -8 -13 -2 0 -5 6 -8 13 -3 8
1 14 8 14 7 0 11 -6 8 -14z m881 5 c-3 -4 -9 -8 -15 -8 -5 0 -9 4 -9 8 0 5 7
9 15 9 8 0 12 -4 9 -9z m76 0 c0 -11 -12 -10 -30 2 -12 7 -10 9 8 7 12 0 22
-5 22 -9z m320 3 c0 -6 -4 -13 -10 -16 -5 -3 -10 1 -10 9 0 9 5 16 10 16 6 0
10 -4 10 -9z m-59 -34 c-6 -8 -7 -18 -3 -22 4 -5 1 -5 -6 -1 -10 6 -10 11 -1
22 6 8 14 14 16 14 3 0 0 -6 -6 -13z m-561 -7 c0 -4 -7 -7 -15 -6 -23 3 -26
12 -5 13 11 1 20 -2 20 -7z m-195 -9 c3 -6 -3 -9 -14 -8 -11 0 -17 5 -15 9 7
11 22 10 29 -1z m705 -13 c-14 -13 -28 -22 -32 -21 -4 2 -16 -9 -27 -23 -11
-13 -22 -21 -25 -16 -3 5 -2 12 2 16 4 4 7 15 7 24 0 10 9 16 25 17 14 0 34 6
45 12 30 18 31 15 5 -9z"/>
<path d="M3110 3720 c-6 -11 -14 -19 -18 -17 -4 1 -8 -1 -9 -5 -3 -8 1 -10 12
-7 3 1 10 2 17 3 6 0 12 11 13 24 2 27 -1 28 -15 2z"/>
<path d="M2825 3600 c10 -11 20 -20 23 -20 3 0 -3 9 -13 20 -10 11 -20 20 -23
20 -3 0 3 -9 13 -20z"/>
<path d="M3856 3014 c-3 -8 -10 -12 -16 -9 -16 10 -12 -11 5 -25 11 -9 15 -9
15 -1 0 7 4 10 9 6 17 -10 23 15 8 30 -13 13 -16 13 -21 -1z m18 -12 c3 -5 -1
-9 -9 -9 -8 0 -12 4 -9 9 3 4 7 8 9 8 2 0 6 -4 9 -8z"/>
<path d="M3721 2816 c-7 -8 -8 -17 -3 -20 6 -3 12 3 15 14 6 24 4 25 -12 6z"/>
<path d="M3701 2761 c-6 -11 -20 -23 -31 -26 -19 -6 -29 -25 -12 -25 16 1 73
58 63 64 -5 4 -15 -2 -20 -13z"/>
<path d="M3656 2697 c-18 -13 -18 -14 -1 -21 17 -6 17 -7 0 -26 -10 -11 -14
-20 -9 -20 5 0 2 -5 -6 -10 -12 -8 -12 -10 -1 -10 11 0 11 -3 0 -17 -10 -11
-10 -14 -1 -9 13 8 17 -6 5 -18 -13 -12 -11 -35 2 -40 10 -3 12 0 8 11 -5 12
-3 14 8 8 11 -6 12 -5 2 5 -8 9 -9 19 -3 31 7 12 6 20 -1 24 -7 5 -4 14 7 26
10 11 19 25 20 32 1 7 3 18 5 26 6 19 -14 24 -35 8z m26 -4 c-6 -2 -9 -10 -6
-15 4 -7 2 -8 -5 -4 -13 9 -5 26 12 25 9 0 8 -2 -1 -6z m-2 -37 c0 -2 -8 -10
-17 -17 -16 -13 -17 -12 -4 4 13 16 21 21 21 13z"/>
<path d="M3633 2503 c8 -12 -27 -46 -36 -36 -4 3 -7 2 -7 -4 0 -6 7 -14 16
-17 8 -3 13 -9 11 -14 -3 -4 1 -16 9 -27 8 -10 14 -13 14 -6 0 7 5 9 13 5 6
-4 5 1 -4 12 -13 16 -17 37 -9 47 8 9 6 38 -2 44 -6 3 -8 1 -5 -4z m-2 -36
c-6 -8 -7 -18 -3 -22 4 -5 1 -5 -6 -1 -10 6 -10 11 -1 22 6 8 14 14 16 14 3 0
0 -6 -6 -13z"/>
<path d="M3600 2320 c-9 -16 -8 -21 5 -26 8 -3 15 -10 15 -16 0 -5 -4 -6 -10
-3 -5 3 -10 2 -10 -4 0 -20 19 -21 25 0 4 12 12 18 21 15 22 -8 17 2 -7 15
-17 9 -20 8 -14 -2 5 -8 4 -10 -4 -5 -16 10 -4 26 14 19 8 -3 15 1 15 8 0 7
-3 9 -7 6 -3 -4 -12 -2 -19 4 -9 8 -16 5 -24 -11z"/>
<path d="M3637 2204 c-4 -4 -2 -13 4 -21 9 -9 8 -13 0 -13 -6 0 -11 -4 -11
-10 0 -14 17 -12 23 3 6 16 -7 50 -16 41z"/>
<path d="M3680 2130 c13 -9 13 -11 0 -20 -11 -7 -11 -10 -2 -10 7 0 11 -4 7
-9 -3 -5 -1 -12 4 -15 5 -4 12 -2 16 4 4 6 11 7 17 4 6 -4 0 7 -13 25 -12 17
-28 31 -33 31 -6 0 -4 -5 4 -10z m25 -29 c3 -5 2 -12 -3 -15 -5 -3 -9 1 -9 9
0 17 3 19 12 6z"/>
<path d="M3965 1699 c-4 -6 0 -9 11 -7 11 2 20 -3 20 -12 1 -8 3 -18 4 -22 1
-5 3 -12 4 -17 0 -5 4 -12 8 -16 4 -4 4 -14 1 -23 -4 -15 -3 -15 6 -2 9 13 11
13 11 0 0 -13 1 -13 10 0 7 11 2 22 -16 41 -13 14 -21 28 -18 32 8 7 -14 37
-27 37 -4 0 -11 -5 -14 -11z m66 -76 c13 -16 12 -17 -3 -4 -17 13 -22 21 -14
21 2 0 10 -8 17 -17z"/>
<path d="M2831 841 c-6 -10 -7 -22 -3 -26 4 -4 -1 -5 -12 -3 -12 2 -20 -3 -22
-15 -2 -14 0 -16 11 -7 17 14 38 4 29 -13 -3 -7 3 -2 14 10 17 19 21 20 26 7
3 -8 10 -13 15 -9 5 3 13 1 16 -5 5 -8 11 -7 21 1 8 6 14 8 14 4 0 -4 6 -2 13
4 8 6 18 8 23 4 5 -4 3 -1 -5 7 -11 12 -14 12 -18 2 -4 -10 -8 -9 -18 5 -10
13 -16 15 -27 6 -8 -7 -19 -8 -27 -4 -9 6 -10 11 -2 15 6 4 11 13 11 19 0 7
-4 6 -10 -3 -5 -8 -10 -10 -10 -4 0 21 -29 24 -39 5z m27 -30 c-7 -9 -14 -18
-16 -21 -3 -3 -1 6 3 19 5 18 4 22 -5 16 -8 -5 -11 -4 -6 3 4 6 13 9 22 5 12
-4 12 -8 2 -22z m66 -22 c-3 -5 -10 -7 -15 -3 -5 3 -7 10 -3 15 3 5 10 7 15 3
5 -3 7 -10 3 -15z"/>
<path d="M3018 790 c-14 -10 -28 -16 -32 -12 -4 3 -4 -1 0 -11 6 -16 8 -16 18
-2 10 13 14 13 38 1 19 -10 30 -11 34 -4 4 6 3 9 -2 5 -5 -3 -18 1 -29 9 -16
12 -17 14 -2 14 9 0 17 5 17 10 0 15 -15 12 -42 -10z"/>
<path d="M3090 761 c0 -5 6 -14 14 -20 10 -9 17 -7 27 6 8 9 9 14 2 10 -6 -4
-14 -3 -18 3 -8 12 -25 13 -25 1z"/>
<path d="M3156 761 c-3 -5 1 -12 10 -15 9 -3 12 -11 8 -18 -4 -7 -4 -10 1 -6
4 4 15 3 24 -1 11 -6 23 -4 36 6 20 16 20 16 0 9 -20 -6 -20 -6 -1 9 21 16 15
34 -6 19 -15 -11 -38 -11 -55 -1 -6 4 -14 3 -17 -2z m57 -25 c4 -10 1 -13 -9
-9 -15 6 -19 23 -5 23 5 0 11 -7 14 -14z"/>
<path d="M1940 802 c0 -6 -7 -9 -16 -5 -11 4 -8 -3 7 -19 13 -13 27 -23 31
-21 3 2 15 -7 25 -20 10 -13 23 -26 29 -30 12 -7 47 20 52 41 2 14 -14 17 -22
4 -3 -5 -16 -8 -28 -8 -28 2 -75 32 -58 38 8 2 7 8 -4 17 -10 8 -16 9 -16 3z
m98 -79 c-8 -10 -14 -10 -24 -2 -18 15 -18 15 11 15 19 0 22 -3 13 -13z"/>
<path d="M2148 749 c-2 -6 -10 -11 -18 -12 -59 -9 -35 -54 27 -51 21 1 39 3
41 4 8 8 30 4 47 -9 20 -16 20 -16 1 7 -11 13 -14 23 -8 23 7 1 18 2 25 3 6 0
12 6 12 13 0 6 4 15 9 20 5 5 6 3 2 -4 -4 -7 -2 -13 4 -13 6 0 8 -5 5 -11 -4
-6 2 -5 13 2 19 12 19 14 4 26 -24 18 -40 16 -52 -7 -6 -11 -16 -20 -23 -20
-8 0 -8 3 2 9 8 5 9 11 3 15 -5 3 -13 -1 -16 -10 -5 -14 -10 -14 -40 4 -19 11
-36 16 -38 11z m18 -38 c-5 -12 -2 -11 9 3 8 11 15 15 15 8 0 -6 10 -9 21 -7
12 3 18 1 15 -3 -4 -4 -12 -8 -17 -8 -5 -1 -10 -2 -11 -3 -11 -9 -48 -9 -48 0
0 8 -4 8 -14 0 -10 -8 -16 -8 -25 2 -14 17 -2 30 14 17 9 -8 14 -6 19 5 8 21
29 8 22 -14z"/>
<path d="M3410 720 c0 -5 5 -10 11 -10 5 0 7 5 4 10 -3 6 -8 10 -11 10 -2 0
-4 -4 -4 -10z"/>
<path d="M3230 3755 c0 -8 2 -15 4 -15 2 0 6 7 10 15 3 8 1 15 -4 15 -6 0 -10
-7 -10 -15z"/>
<path d="M3254 3742 c3 -5 1 -12 -6 -14 -8 -3 -9 -6 -1 -11 6 -4 13 0 17 8 3
8 0 17 -6 21 -6 4 -8 3 -4 -4z"/>
<path d="M2794 3685 c9 -14 14 -31 10 -37 -4 -6 -3 -8 3 -5 6 4 30 -10 53 -31
45 -42 77 -53 57 -20 -7 10 -13 14 -15 9 -2 -5 -12 -2 -22 7 -25 21 -8 47 20
32 13 -7 21 -7 25 0 3 5 5 10 3 11 -36 8 -59 5 -66 -8 -7 -12 -12 -8 -22 17
-9 23 -15 28 -21 18 -7 -10 -9 -9 -9 3 0 9 -7 20 -16 23 -15 6 -15 4 0 -19z"/>
<path d="M3215 3700 c-3 -5 -3 -10 1 -10 4 0 -1 -7 -12 -15 -10 -8 -14 -15 -9
-15 6 0 3 -5 -5 -11 -13 -9 -13 -10 0 -6 8 2 14 10 12 17 -2 7 3 10 12 7 11
-4 14 0 11 14 -3 15 0 19 11 15 9 -3 12 -1 9 4 -8 13 -22 13 -30 0z"/>
<path d="M3310 3699 c0 -5 5 -7 10 -4 6 3 10 8 10 11 0 2 -4 4 -10 4 -5 0 -10
-5 -10 -11z"/>
<path d="M3326 3662 c-3 -5 1 -9 9 -9 8 0 12 4 9 9 -3 4 -7 8 -9 8 -2 0 -6 -4
-9 -8z"/>
<path d="M2623 3644 c14 -17 15 -23 5 -27 -9 -4 -9 -6 -1 -6 22 -2 23 16 0 35
l-22 19 18 -21z"/>
<path d="M3265 3640 c10 -11 20 -20 23 -20 3 0 -3 9 -13 20 -10 11 -20 20 -23
20 -3 0 3 -9 13 -20z"/>
<path d="M3233 3638 c3 -9 1 -19 -6 -21 -7 -3 -2 -4 10 -4 18 1 20 4 10 17
-19 25 -20 26 -14 8z"/>
<path d="M3152 3624 c-11 -12 -9 -13 7 -11 11 2 24 7 28 12 5 4 3 5 -4 2 -6
-4 -13 -3 -15 2 -1 5 -9 3 -16 -5z"/>
<path d="M2660 3626 c0 -2 7 -6 15 -10 8 -3 15 -1 15 4 0 6 -7 10 -15 10 -8 0
-15 -2 -15 -4z"/>
<path d="M2189 3603 c-13 -16 -12 -17 4 -4 16 13 21 21 13 21 -2 0 -10 -8 -17
-17z"/>
<path d="M2350 3600 c0 -5 5 -10 11 -10 5 0 7 5 4 10 -3 6 -8 10 -11 10 -2 0
-4 -4 -4 -10z"/>
<path d="M2530 3599 c0 -5 5 -7 10 -4 6 3 10 8 10 11 0 2 -4 4 -10 4 -5 0 -10
-5 -10 -11z"/>
<path d="M2666 3594 c19 -15 19 -16 -1 -10 -20 6 -20 6 -1 -9 11 -8 25 -15 30
-15 6 0 4 5 -4 10 -8 5 -11 10 -6 10 12 0 -14 30 -27 30 -6 0 -2 -7 9 -16z"/>
<path d="M2215 3591 c-3 -5 -2 -12 3 -15 5 -3 9 1 9 9 0 17 -3 19 -12 6z"/>
<path d="M3530 3566 c0 -2 7 -7 16 -10 8 -3 12 -2 9 4 -6 10 -25 14 -25 6z"/>
<path d="M2670 3541 c8 -5 18 -7 24 -4 5 4 7 -1 3 -10 -3 -10 -2 -17 4 -17 22
0 3 33 -21 37 -18 2 -21 1 -10 -6z"/>
<path d="M2569 3523 c-13 -16 -12 -17 4 -4 16 13 21 21 13 21 -2 0 -10 -8 -17
-17z"/>
<path d="M2726 3523 c-6 -14 -5 -15 5 -6 7 7 10 15 7 18 -3 3 -9 -2 -12 -12z"/>
<path d="M2359 3513 c-13 -16 -12 -17 4 -4 16 13 21 21 13 21 -2 0 -10 -8 -17
-17z"/>
<path d="M2526 3522 c-3 -5 1 -9 9 -9 8 0 12 4 9 9 -3 4 -7 8 -9 8 -2 0 -6 -4
-9 -8z"/>
<path d="M2650 3516 c0 -20 17 -29 26 -15 5 8 3 9 -6 4 -10 -6 -12 -4 -7 8 3
10 2 17 -3 17 -6 0 -10 -6 -10 -14z"/>
<path d="M2591 3507 c-8 -10 -7 -14 4 -14 8 0 11 5 8 10 -4 6 1 8 11 4 10 -4
15 -3 11 3 -8 14 -20 12 -34 -3z"/>
<path d="M2431 3494 c6 -7 7 -19 3 -25 -4 -7 -3 -9 4 -5 15 9 11 43 -5 43 -9
0 -10 -4 -2 -13z"/>
<path d="M2524 3478 l-19 -23 23 19 c21 18 27 26 19 26 -2 0 -12 -10 -23 -22z"/>
<path d="M3726 3482 c-3 -5 1 -9 9 -9 8 0 12 4 9 9 -3 4 -7 8 -9 8 -2 0 -6 -4
-9 -8z"/>
<path d="M3793 3455 c0 -8 4 -12 9 -9 5 3 6 10 3 15 -9 13 -12 11 -12 -6z"/>
<path d="M3735 3451 c-9 -15 15 -25 28 -12 9 9 7 10 -7 5 -13 -5 -17 -4 -12 4
4 7 5 12 2 12 -3 0 -7 -4 -11 -9z"/>
<path d="M3899 3428 c-5 -18 -6 -38 -1 -34 7 8 12 36 6 36 -2 0 -4 -1 -5 -2z"/>
<path d="M3810 3411 c0 -7 -4 -9 -10 -6 -6 4 -7 -1 -3 -11 6 -15 7 -15 15 1 6
9 7 19 4 22 -3 4 -6 1 -6 -6z"/>
<path d="M3839 3418 c-5 -18 -6 -38 -1 -34 7 8 12 36 6 36 -2 0 -4 -1 -5 -2z"/>
<path d="M3810 3365 c0 -7 30 -13 34 -7 3 4 -4 9 -15 9 -10 1 -19 0 -19 -2z"/>
<path d="M3900 3366 c0 -2 8 -10 18 -17 15 -13 16 -12 3 4 -13 16 -21 21 -21
13z"/>
<path d="M3950 3340 c0 -5 5 -10 11 -10 5 0 7 5 4 10 -3 6 -8 10 -11 10 -2 0
-4 -4 -4 -10z"/>
<path d="M3888 3333 c-10 -2 -18 -9 -18 -14 0 -6 8 -5 20 1 11 6 20 13 20 15
0 3 -1 4 -2 4 -2 -1 -11 -3 -20 -6z"/>
<path d="M3915 3321 c-3 -5 -2 -12 3 -15 5 -3 9 1 9 9 0 17 -3 19 -12 6z"/>
<path d="M3883 3303 c-7 -3 -13 -9 -13 -15 0 -7 4 -7 13 0 9 8 15 4 24 -14 6
-13 8 -24 3 -24 -4 0 -11 -8 -14 -17 -5 -13 -1 -11 16 6 16 16 19 25 11 28 -7
3 -13 11 -13 18 0 17 -11 24 -27 18z"/>
<path d="M3976 3218 c3 -5 10 -6 15 -3 13 9 11 12 -6 12 -8 0 -12 -4 -9 -9z"/>
<path d="M3845 3195 c-16 -8 -27 -15 -22 -16 4 -1 12 -3 17 -4 6 -1 15 -3 21
-4 8 -1 8 -6 -1 -16 -8 -10 -9 -15 -2 -15 17 0 34 37 22 45 -6 4 -8 11 -5 16
7 11 8 11 -30 -6z"/>
<path d="M4030 3201 c0 -6 4 -12 8 -15 5 -3 9 1 9 9 0 8 -4 15 -9 15 -4 0 -8
-4 -8 -9z"/>
<path d="M3974 3178 c-5 -7 -3 -8 6 -3 9 6 12 4 8 -7 -4 -8 0 -15 7 -15 10 0
11 5 4 19 -11 21 -15 22 -25 6z"/>
<path d="M4026 3101 c-3 -4 4 -7 14 -6 27 2 33 10 10 12 -11 1 -22 -2 -24 -6z"/>
<path d="M3997 3093 c-10 -9 -9 -23 1 -23 5 0 9 7 9 15 0 17 -1 18 -10 8z"/>
<path d="M4011 3047 c-13 -21 -12 -21 5 -5 10 10 16 20 13 22 -3 3 -11 -5 -18
-17z"/>
<path d="M4030 3020 c0 -5 5 -10 11 -10 5 0 7 5 4 10 -3 6 -8 10 -11 10 -2 0
-4 -4 -4 -10z"/>
<path d="M3990 2999 c0 -5 5 -7 10 -4 6 3 10 8 10 11 0 2 -4 4 -10 4 -5 0 -10
-5 -10 -11z"/>
<path d="M3958 2983 c0 -5 -2 -15 -2 -23 -1 -8 -8 -14 -15 -12 -7 1 -10 -2 -6
-8 10 -17 35 8 28 27 -5 12 -3 14 7 8 9 -5 11 -4 6 3 -8 14 -15 15 -18 5z"/>
<path d="M3799 2903 c-13 -16 -12 -17 4 -4 16 13 21 21 13 21 -2 0 -10 -8 -17
-17z"/>
<path d="M3970 2899 c0 -5 5 -7 10 -4 6 3 10 8 10 11 0 2 -4 4 -10 4 -5 0 -10
-5 -10 -11z"/>
<path d="M3953 2855 c0 -8 4 -12 9 -9 5 3 6 10 3 15 -9 13 -12 11 -12 -6z"/>
<path d="M3913 2845 c0 -8 4 -15 9 -15 4 0 8 4 8 9 0 6 -4 12 -8 15 -5 3 -9
-1 -9 -9z"/>
<path d="M3833 2812 c-7 -5 -3 -11 13 -19 23 -11 24 -10 13 5 -8 9 -14 18 -14
19 0 1 -6 -1 -12 -5z"/>
<path d="M3910 2806 c0 -2 7 -7 16 -10 8 -3 12 -2 9 4 -6 10 -25 14 -25 6z"/>
<path d="M3830 2766 c0 -2 9 -6 20 -9 11 -3 18 -1 14 4 -5 9 -34 13 -34 5z"/>
<path d="M3827 2739 c7 -7 15 -10 18 -7 3 3 -2 9 -12 12 -14 6 -15 5 -6 -5z"/>
<path d="M3800 2720 c-9 -6 -10 -10 -3 -10 6 0 15 5 18 10 8 12 4 12 -15 0z"/>
<path d="M3750 2686 c0 -2 9 -6 20 -9 11 -3 18 -1 14 4 -5 9 -34 13 -34 5z"/>
<path d="M3748 2663 c7 -3 16 -2 19 1 4 3 -2 6 -13 5 -11 0 -14 -3 -6 -6z"/>
<path d="M3790 2641 c0 -6 4 -13 10 -16 6 -3 7 1 4 9 -7 18 -14 21 -14 7z"/>
<path d="M3733 2577 c-3 -6 -1 -7 5 -3 5 3 12 1 14 -6 3 -8 6 -7 10 3 7 17
-19 22 -29 6z"/>
<path d="M3707 2537 c-3 -8 1 -14 8 -14 7 0 11 6 8 14 -3 7 -6 13 -8 13 -2 0
-5 -6 -8 -13z"/>
<path d="M3715 2481 c-3 -5 -2 -12 3 -15 5 -3 9 1 9 9 0 17 -3 19 -12 6z"/>
<path d="M3760 2480 c-9 -6 -10 -10 -3 -10 6 0 15 5 18 10 8 12 4 12 -15 0z"/>
<path d="M3753 2445 c0 -8 4 -12 9 -9 5 3 6 10 3 15 -9 13 -12 11 -12 -6z"/>
<path d="M3700 2439 c0 -5 5 -7 10 -4 6 3 10 8 10 11 0 2 -4 4 -10 4 -5 0 -10
-5 -10 -11z"/>
<path d="M3736 2407 c3 -10 9 -15 12 -12 3 3 0 11 -7 18 -10 9 -11 8 -5 -6z"/>
<path d="M3776 2378 c3 -5 10 -6 15 -3 13 9 11 12 -6 12 -8 0 -12 -4 -9 -9z"/>
<path d="M3707 2329 c4 -13 8 -18 11 -10 2 7 -1 18 -6 23 -8 8 -9 4 -5 -13z"/>
<path d="M3731 2284 c0 -11 3 -14 6 -6 3 7 2 16 -1 19 -3 4 -6 -2 -5 -13z"/>
<path d="M3755 2283 c3 -3 0 -11 -5 -18 -7 -8 -5 -12 4 -12 14 0 16 22 3 32
-4 3 -5 2 -2 -2z"/>
<path d="M3708 2253 c7 -3 16 -2 19 1 4 3 -2 6 -13 5 -11 0 -14 -3 -6 -6z"/>
<path d="M3733 2216 c-4 -5 -1 -6 7 -1 9 6 12 4 8 -7 -4 -9 0 -15 8 -15 8 0
12 3 9 5 -3 3 -1 10 5 16 6 8 3 12 -11 12 -11 0 -23 -5 -26 -10z"/>
<path d="M3805 2200 c-3 -6 1 -7 9 -4 18 7 21 14 7 14 -6 0 -13 -4 -16 -10z"/>
<path d="M3796 2167 c3 -10 9 -15 12 -12 3 3 0 11 -7 18 -10 9 -11 8 -5 -6z"/>
<path d="M3745 2160 c3 -5 8 -10 11 -10 2 0 4 5 4 10 0 6 -5 10 -11 10 -5 0
-7 -4 -4 -10z"/>
<path d="M3730 2145 c0 -13 20 -35 32 -35 4 0 8 5 8 12 0 6 -3 8 -7 5 -3 -4
-12 1 -19 11 -7 9 -14 12 -14 7z"/>
<path d="M3826 2118 c3 -5 10 -6 15 -3 13 9 11 12 -6 12 -8 0 -12 -4 -9 -9z"/>
<path d="M3775 2099 c-4 -6 -4 -13 -1 -16 3 -4 6 -1 6 6 0 7 5 9 12 5 7 -4 8
-3 4 4 -9 15 -13 15 -21 1z"/>
<path d="M3815 2080 c3 -5 8 -10 11 -10 2 0 4 5 4 10 0 6 -5 10 -11 10 -5 0
-7 -4 -4 -10z"/>
<path d="M3770 2067 c0 -12 31 -57 40 -57 4 0 11 7 14 16 6 15 4 15 -11 3 -15
-12 -16 -12 -9 6 4 11 4 16 0 12 -4 -4 -13 1 -20 11 -7 9 -14 13 -14 9z"/>
<path d="M3835 2021 c-3 -5 -2 -12 3 -15 5 -3 9 1 9 9 0 17 -3 19 -12 6z"/>
<path d="M1015 1991 c-3 -5 -2 -12 3 -15 5 -3 9 1 9 9 0 17 -3 19 -12 6z"/>
<path d="M3919 1973 c-13 -16 -12 -17 4 -4 9 7 17 15 17 17 0 8 -8 3 -21 -13z"/>
<path d="M3820 1958 c0 -11 12 -10 30 2 12 7 10 9 -8 7 -12 0 -22 -5 -22 -9z"/>
<path d="M3785 1927 c11 -17 22 -24 32 -20 11 4 14 2 9 -5 -3 -6 3 -16 15 -22
12 -7 19 -8 15 -2 -3 5 4 23 16 38 l22 29 -22 -19 c-23 -20 -31 -9 -10 12 9 9
9 12 0 12 -7 0 -12 -4 -12 -8 0 -11 -51 -9 -69 2 -9 6 -7 0 4 -17z m65 -29 c0
-19 -16 -5 -17 14 -2 18 0 20 7 8 5 -8 10 -18 10 -22z"/>
<path d="M3910 1940 c-12 -7 -10 -9 7 -7 12 0 19 5 17 9 -6 10 -6 10 -24 -2z"/>
<path d="M1030 1896 c0 -2 8 -10 18 -17 15 -13 16 -12 3 4 -13 16 -21 21 -21
13z"/>
<path d="M3978 1848 c8 -9 11 -21 9 -25 -3 -5 3 -9 13 -9 13 0 16 4 10 12 -6
6 -6 15 -2 20 4 5 3 6 -2 2 -5 -4 -16 -2 -25 5 -14 10 -14 10 -3 -5z"/>
<path d="M3946 1841 c-3 -5 1 -11 9 -14 9 -4 12 -1 8 9 -6 16 -10 17 -17 5z"/>
<path d="M4030 1817 c0 -2 6 -10 14 -16 11 -9 16 -9 22 1 4 7 4 10 -1 6 -4 -4
-14 -3 -22 3 -7 6 -13 9 -13 6z"/>
<path d="M1093 1775 c0 -8 4 -12 9 -9 5 3 6 10 3 15 -9 13 -12 11 -12 -6z"/>
<path d="M4026 1765 c-3 -8 -1 -15 5 -15 6 0 7 -5 3 -12 -4 -6 -3 -8 4 -5 5 4
8 16 5 27 -6 24 -9 25 -17 5z"/>
<path d="M4050 1726 c0 -2 7 -7 16 -10 8 -3 12 -2 9 4 -6 10 -25 14 -25 6z"/>
<path d="M4077 1683 c-10 -9 -9 -23 1 -23 5 0 9 7 9 15 0 17 -1 18 -10 8z"/>
<path d="M1155 1601 c-3 -5 -2 -12 3 -15 5 -3 9 1 9 9 0 17 -3 19 -12 6z"/>
<path d="M4103 1584 c-9 -20 -9 -23 0 -16 7 6 16 10 20 10 5 0 12 4 15 8 4 4
2 4 -5 0 -6 -3 -13 1 -15 9 -2 10 -7 6 -15 -11z"/>
<path d="M1184 1570 c0 -13 4 -16 10 -10 7 7 7 13 0 20 -6 6 -10 3 -10 -10z"/>
<path d="M4153 1569 c-2 -23 3 -25 10 -4 4 8 3 16 -1 19 -4 3 -9 -4 -9 -15z"/>
<path d="M4020 1525 c-10 -12 -16 -13 -26 -4 -11 9 -14 9 -14 0 0 -6 6 -14 14
-17 16 -6 17 -64 1 -77 -6 -4 -3 -11 8 -18 14 -8 15 -14 7 -24 -6 -8 -17 -12
-24 -9 -7 3 -19 -2 -26 -11 -8 -9 -8 -15 -2 -15 6 0 14 5 18 11 4 8 9 7 15 -2
5 -8 2 -21 -8 -32 -10 -10 -18 -25 -19 -34 -4 -27 -21 -38 -39 -23 -22 19 -18
-4 5 -25 20 -18 28 -41 11 -31 -16 10 -46 -22 -46 -51 0 -22 -5 -28 -23 -29
-12 -1 -25 -4 -29 -8 -3 -3 -12 -1 -20 5 -17 15 -16 -1 1 -23 13 -17 32 -26
23 -10 -3 4 2 14 11 22 14 13 15 12 9 -3 -4 -10 -3 -16 2 -12 11 6 7 -42 -4
-53 -4 -4 -4 3 -1 16 8 24 0 28 -24 12 -10 -6 -11 -10 -2 -10 6 0 12 -5 12
-11 0 -5 -5 -7 -12 -3 -7 4 -8 3 -4 -5 4 -6 20 -18 36 -26 27 -14 30 -14 40 5
7 14 7 20 0 20 -5 0 -10 -7 -10 -15 0 -9 -6 -12 -15 -9 -8 4 -15 10 -15 16 0
5 4 6 10 3 6 -3 7 1 4 10 -4 11 -2 14 9 9 8 -3 18 0 22 5 3 6 11 8 17 5 7 -4
8 -2 4 4 -4 7 -2 12 5 12 8 0 9 3 0 13 -6 8 -8 17 -4 20 10 11 23 8 21 -4 -2
-6 3 -13 10 -14 7 -2 8 -1 3 1 -12 7 -3 56 12 66 9 6 8 8 -1 8 -8 0 -16 -9
-19 -20 -3 -11 -10 -17 -15 -14 -5 3 -2 16 6 30 18 26 22 48 5 24 -9 -13 -10
-13 -6 0 2 8 10 14 16 13 6 -2 11 2 11 8 0 8 5 7 15 -1 24 -20 41 2 20 24 -9
9 -14 16 -10 16 3 0 1 9 -5 20 -8 14 -8 20 0 20 6 0 15 -10 20 -22 8 -21 9
-21 10 -3 0 17 2 17 10 5 5 -8 10 -10 10 -5 0 6 -4 17 -9 24 -13 20 6 54 25
47 9 -3 12 -1 9 4 -3 6 -1 10 4 10 6 0 11 5 11 11 0 8 -4 8 -14 0 -11 -10 -20
-10 -36 -1 -12 6 -19 14 -16 17 3 4 1 13 -6 20 -9 11 -9 16 3 23 9 6 14 27 14
60 0 27 0 50 -1 50 -1 0 -7 -7 -14 -15z m7 -50 c0 -8 -4 -12 -9 -9 -5 3 -6 10
-3 15 9 13 12 11 12 -6z m18 -117 c5 4 1 -4 -8 -17 -8 -13 -13 -31 -9 -40 5
-14 3 -14 -11 -3 -9 8 -21 11 -28 7 -7 -5 -6 1 2 16 7 13 14 29 15 34 3 27 6
29 18 13 7 -10 17 -14 21 -10z m-52 -82 c4 -10 1 -13 -7 -10 -7 3 -13 -2 -13
-10 0 -8 6 -12 12 -10 7 3 18 -2 25 -11 8 -9 8 -15 2 -15 -6 0 -13 4 -17 10
-3 5 -12 7 -20 4 -27 -11 -36 6 -18 31 21 28 29 31 36 11z m-49 -82 c3 -9 2
-12 -4 -9 -7 4 -9 -5 -5 -24 3 -16 1 -32 -5 -36 -5 -3 -7 -12 -4 -19 5 -14
-23 -43 -32 -33 -11 11 -11 42 0 56 6 8 11 26 11 40 0 15 5 25 13 24 6 -2 12
2 12 7 0 15 7 12 14 -6z"/>
<path d="M4013 1356 c3 -7 0 -20 -6 -27 -10 -11 -9 -11 5 0 15 11 15 41 1 41
-3 0 -3 -6 0 -14z"/>
<path d="M3914 1169 c2 -13 -3 -32 -12 -41 -12 -15 -13 -18 -1 -18 11 0 11 -2
-1 -11 -13 -9 -13 -10 0 -6 8 2 14 10 12 17 -1 7 1 17 6 24 10 11 8 43 -2 54
-4 3 -5 -5 -2 -19z"/>
<path d="M4170 1536 c0 -2 8 -10 18 -17 15 -13 16 -12 3 4 -13 16 -21 21 -21
13z"/>
<path d="M1199 1508 c-6 -20 -6 -39 0 -42 4 -3 7 6 7 20 0 20 -4 32 -7 22z"/>
<path d="M4195 1480 c3 -5 8 -10 11 -10 2 0 4 5 4 10 0 6 -5 10 -11 10 -5 0
-7 -4 -4 -10z"/>
<path d="M1244 1459 c-3 -6 -2 -15 4 -21 6 -6 12 -6 17 3 6 8 4 10 -5 4 -10
-6 -12 -4 -7 8 7 19 2 23 -9 6z"/>
<path d="M1250 1416 c0 -2 8 -10 18 -17 15 -13 16 -12 3 4 -13 16 -21 21 -21
13z"/>
<path d="M1217 1395 c-4 -8 -3 -16 1 -19 4 -3 9 4 9 15 2 23 -3 25 -10 4z"/>
<path d="M1160 1366 c0 -2 8 -10 18 -17 15 -13 16 -12 3 4 -13 16 -21 21 -21
13z"/>
<path d="M4050 1316 c0 -20 12 -25 35 -15 18 8 18 9 -3 5 -17 -3 -22 -1 -18
10 3 8 1 14 -4 14 -6 0 -10 -6 -10 -14z"/>
<path d="M1233 1285 c0 -8 4 -12 9 -9 5 3 6 10 3 15 -9 13 -12 11 -12 -6z"/>
<path d="M1310 1281 c0 -6 4 -12 8 -15 5 -3 9 1 9 9 0 8 -4 15 -9 15 -4 0 -8
-4 -8 -9z"/>
<path d="M4053 1255 c-3 -9 -3 -18 -1 -21 3 -3 8 4 11 16 6 23 -1 27 -10 5z"/>
<path d="M4066 1222 c-3 -5 1 -9 9 -9 8 0 12 4 9 9 -3 4 -7 8 -9 8 -2 0 -6 -4
-9 -8z"/>
<path d="M1355 1200 c-2 -3 10 -6 26 -6 16 -1 29 1 29 5 0 8 -50 9 -55 1z"/>
<path d="M3980 1202 c0 -6 9 -12 20 -15 11 -3 20 -3 20 -1 0 2 -9 8 -20 14
-11 6 -20 7 -20 2z"/>
<path d="M1433 1183 c9 -2 14 -9 11 -15 -4 -7 -2 -8 5 -4 15 10 4 26 -17 25
-15 -1 -15 -2 1 -6z"/>
<path d="M4036 1178 c3 -5 10 -6 15 -3 13 9 11 12 -6 12 -8 0 -12 -4 -9 -9z"/>
<path d="M1375 1169 c-4 -6 -5 -12 -2 -15 2 -3 7 2 10 11 7 17 1 20 -8 4z"/>
<path d="M1316 1153 c-6 -14 -5 -15 5 -6 7 7 10 15 7 18 -3 3 -9 -2 -12 -12z"/>
<path d="M1410 1159 c0 -5 5 -7 10 -4 6 3 10 8 10 11 0 2 -4 4 -10 4 -5 0 -10
-5 -10 -11z"/>
<path d="M4022 1160 c10 -6 15 -20 14 -35 -2 -13 1 -22 5 -19 18 11 -3 64 -24
64 -7 0 -5 -5 5 -10z"/>
<path d="M3990 1151 c0 -5 7 -12 16 -15 14 -5 15 -4 4 9 -14 17 -20 19 -20 6z"/>
<path d="M1413 1127 c0 -8 6 -14 14 -14 9 0 10 4 2 14 -6 7 -12 13 -14 13 -1
0 -2 -6 -2 -13z"/>
<path d="M3980 1126 c0 -2 8 -10 18 -17 15 -13 16 -12 3 4 -13 16 -21 21 -21
13z"/>
<path d="M1516 1097 c3 -10 9 -15 12 -12 3 3 0 11 -7 18 -10 9 -11 8 -5 -6z"/>
<path d="M1481 1095 c0 -5 3 -16 8 -23 7 -11 9 -10 14 3 4 9 3 14 -2 10 -5 -3
-12 1 -14 7 -3 7 -6 9 -6 3z"/>
<path d="M1416 1067 c3 -10 9 -15 12 -12 3 3 0 11 -7 18 -10 9 -11 8 -5 -6z"/>
<path d="M1544 1055 c-1 -14 2 -25 8 -25 5 0 6 5 3 10 -3 6 -1 10 4 10 6 0 11
-4 11 -9 0 -5 8 -12 17 -16 11 -4 7 5 -11 24 -17 17 -30 31 -30 31 -1 0 -2
-11 -2 -25z"/>
<path d="M1510 1060 c0 -5 5 -10 10 -10 6 0 10 5 10 10 0 6 -4 10 -10 10 -5 0
-10 -4 -10 -10z"/>
<path d="M3950 1063 c0 -5 5 -15 10 -23 7 -12 9 -10 7 8 -1 19 -17 33 -17 15z"/>
<path d="M1516 1027 c3 -10 9 -15 12 -12 3 3 0 11 -7 18 -10 9 -11 8 -5 -6z"/>
<path d="M1455 1020 c3 -5 8 -10 11 -10 2 0 4 5 4 10 0 6 -5 10 -11 10 -5 0
-7 -4 -4 -10z"/>
<path d="M1553 1013 c-18 -7 -16 -20 2 -20 8 0 12 4 9 8 -2 4 2 10 8 12 7 3 9
5 3 5 -5 0 -16 -2 -22 -5z"/>
<path d="M3905 1000 c-3 -6 1 -7 9 -4 18 7 21 14 7 14 -6 0 -13 -4 -16 -10z"/>
<path d="M1615 990 c-3 -5 -12 -7 -19 -4 -19 7 -27 -9 -14 -26 8 -12 9 -11 4
3 -5 14 -2 17 13 12 12 -3 21 0 25 10 6 17 1 20 -9 5z"/>
<path d="M3713 966 c0 -8 6 -12 14 -9 7 3 10 9 7 14 -8 14 -21 11 -21 -5z"/>
<path d="M3893 972 c-7 -4 -9 -13 -4 -21 6 -9 10 -7 14 8 3 12 4 21 4 21 -1 0
-7 -4 -14 -8z"/>
<path d="M1622 961 c-11 -7 -10 -10 3 -15 21 -8 53 8 36 18 -6 4 -11 2 -11 -3
0 -6 -5 -11 -11 -11 -5 0 -7 5 -4 10 7 12 4 12 -13 1z"/>
<path d="M1557 947 c-3 -8 1 -14 8 -14 7 0 11 6 8 14 -3 7 -6 13 -8 13 -2 0
-5 -6 -8 -13z"/>
<path d="M3845 927 c-15 -12 -16 -15 -4 -22 8 -5 11 -5 7 0 -4 4 0 14 10 21
23 18 11 18 -13 1z"/>
<path d="M1610 920 c-9 -6 -10 -10 -3 -10 6 0 15 5 18 10 8 12 4 12 -15 0z"/>
<path d="M3895 920 c-3 -5 -1 -10 4 -10 6 0 11 5 11 10 0 6 -2 10 -4 10 -3 0
-8 -4 -11 -10z"/>
<path d="M1676 853 c-6 -14 -5 -15 5 -6 7 7 10 15 7 18 -3 3 -9 -2 -12 -12z"/>
<path d="M2643 853 c-19 -7 -16 -19 6 -20 14 -1 18 3 14 13 -3 8 -6 14 -7 13
0 0 -7 -3 -13 -6z"/>
<path d="M2671 845 c3 -17 -1 -20 -27 -18 -20 1 -31 -3 -31 -12 0 -9 9 -11 26
-8 14 3 34 6 43 7 28 3 30 11 7 32 -21 19 -21 19 -18 -1z"/>
<path d="M3550 841 c-8 -6 -17 -8 -20 -6 -3 2 -6 -9 -7 -23 -1 -22 0 -23 9 -9
5 10 15 14 21 11 7 -4 9 -4 5 1 -4 4 -3 14 3 22 13 15 10 16 -11 4z"/>
<path d="M3790 839 c0 -5 5 -7 10 -4 6 3 10 8 10 11 0 2 -4 4 -10 4 -5 0 -10
-5 -10 -11z"/>
<path d="M1613 815 c0 -8 4 -12 9 -9 5 3 6 10 3 15 -9 13 -12 11 -12 -6z"/>
<path d="M2419 805 c-1 -5 -1 -14 0 -19 3 -17 -31 -57 -44 -52 -14 5 -31 -11
-22 -20 9 -9 57 -12 52 -3 -3 4 -1 10 4 13 10 7 27 -31 23 -50 -1 -7 6 -15 15
-18 14 -6 15 -5 6 5 -10 10 -10 16 0 28 10 12 9 13 -2 7 -9 -6 -12 -5 -9 5 3
8 10 13 16 12 14 -3 62 43 54 51 -3 3 -1 6 5 6 6 0 14 -7 17 -16 9 -22 8 -24
-8 -18 -17 6 -31 -12 -16 -21 5 -3 16 -3 23 2 6 4 21 7 32 6 16 -1 16 -1 3 3
-21 6 -23 15 -6 32 9 9 9 12 0 12 -7 0 -12 -5 -12 -12 0 -6 -3 -8 -7 -4 -4 4
3 16 17 26 19 14 22 22 13 31 -14 14 -36 2 -29 -18 4 -9 2 -11 -6 -7 -7 5 -8
3 -3 -6 5 -8 4 -11 -3 -6 -6 4 -9 14 -6 24 3 9 -1 6 -9 -8 -9 -14 -18 -24 -21
-22 -3 1 -7 2 -8 1 -24 -7 -40 -4 -54 12 -15 16 -15 19 -2 14 9 -4 18 0 21 9
4 10 0 14 -14 13 -10 -1 -20 -6 -20 -12z m151 -5 c0 -5 -5 -10 -11 -10 -5 0
-7 5 -4 10 3 6 8 10 11 10 2 0 4 -4 4 -10z m-110 -46 c14 -1 28 3 32 10 5 7 8
8 8 0 0 -6 -9 -19 -20 -29 -11 -10 -20 -15 -20 -10 0 4 -6 2 -14 -4 -11 -9
-15 -8 -20 5 -5 14 -9 14 -23 3 -13 -11 -12 -8 2 12 11 15 22 24 25 20 3 -3
16 -7 30 -7z"/>
<path d="M2426 738 c3 -4 9 -8 15 -8 5 0 9 4 9 8 0 5 -7 9 -15 9 -8 0 -12 -4
-9 -9z"/>
<path d="M2495 800 c3 -5 8 -10 11 -10 2 0 4 5 4 10 0 6 -5 10 -11 10 -5 0 -7
-4 -4 -10z"/>
<path d="M1753 783 c4 -3 1 -13 -6 -22 -11 -14 -10 -14 6 -2 20 15 22 31 5 31
-6 0 -8 -3 -5 -7z"/>
<path d="M3649 765 c-9 -18 -9 -18 4 -3 13 16 15 16 32 0 16 -15 17 -15 7 0
-10 13 -10 17 0 21 7 3 3 4 -10 4 -13 -1 -28 -11 -33 -22z"/>
<path d="M3305 758 c1 -13 5 -22 8 -20 4 1 7 4 7 7 0 3 0 12 0 20 0 8 -4 15
-8 15 -5 0 -8 -10 -7 -22z"/>
<path d="M3440 770 c-8 -5 -12 -12 -9 -15 4 -3 12 1 19 10 14 17 11 19 -10 5z"/>
<path d="M1787 758 c-15 -12 -14 -13 10 -14 16 -1 22 1 15 3 -6 3 -10 9 -6 14
7 12 1 11 -19 -3z"/>
<path d="M3582 750 c-7 -11 -10 -20 -7 -20 3 0 14 9 25 20 12 12 15 20 7 20
-7 0 -18 -9 -25 -20z"/>
<path d="M3730 746 c0 -2 7 -7 16 -10 8 -3 12 -2 9 4 -6 10 -25 14 -25 6z"/>
<path d="M2657 726 c-4 -11 -5 -21 -2 -24 3 -3 5 0 5 7 0 7 4 10 9 6 5 -3 13
0 17 6 4 7 3 9 -4 5 -5 -3 -12 -1 -14 6 -3 7 -7 5 -11 -6z"/>
<path d="M2890 731 c0 -10 19 -25 25 -20 1 2 -3 10 -11 17 -8 7 -14 8 -14 3z"/>
<path d="M1846 722 c-3 -5 1 -9 9 -9 8 0 15 4 15 9 0 4 -4 8 -9 8 -6 0 -12 -4
-15 -8z"/>
<path d="M2716 722 c-3 -5 1 -9 9 -9 8 0 12 4 9 9 -3 4 -7 8 -9 8 -2 0 -6 -4
-9 -8z"/>
<path d="M2840 720 c0 -6 4 -9 9 -6 5 4 12 1 14 -4 3 -6 4 -5 3 2 -3 15 -26
23 -26 8z"/>
<path d="M3534 719 c-3 -6 -1 -16 5 -22 9 -9 10 -7 5 7 -5 13 -4 17 4 12 7 -4
12 -2 12 3 0 14 -17 14 -26 0z"/>
<path d="M3604 723 c4 -4 16 -8 28 -10 28 -4 18 6 -12 12 -12 2 -20 1 -16 -2z"/>
<path d="M1876 701 c-3 -5 2 -15 12 -22 16 -13 16 -13 2 5 -14 18 -13 19 3 13
11 -4 16 -3 12 3 -8 12 -22 13 -29 1z"/>
<path d="M1950 700 c0 -6 4 -9 9 -5 5 3 12 -2 14 -10 4 -12 5 -12 3 1 -1 19
-26 32 -26 14z"/>
<path d="M2480 698 c-12 -8 -11 -9 4 -4 15 5 17 2 13 -14 -3 -11 -1 -18 4 -14
11 6 12 31 1 38 -4 2 -14 0 -22 -6z"/>
<path d="M2535 701 c-6 -11 13 -26 22 -17 4 3 1 6 -6 6 -7 0 -9 5 -6 10 3 6 4
10 1 10 -3 0 -7 -4 -11 -9z"/>
<path d="M2976 701 c-3 -5 1 -14 8 -21 8 -6 13 -20 11 -31 -2 -11 0 -17 5 -14
11 7 7 29 -9 48 -10 13 -9 16 11 20 22 4 22 4 1 6 -12 0 -24 -3 -27 -8z"/>
<path d="M3510 701 c0 -6 4 -13 10 -16 6 -3 7 1 4 9 -7 18 -14 21 -14 7z"/>
<path d="M1790 685 c0 -7 30 -13 34 -7 3 4 -4 9 -15 9 -10 1 -19 0 -19 -2z"/>
<path d="M1853 671 c0 -11 5 -18 9 -15 4 3 5 11 1 19 -7 21 -12 19 -10 -4z"/>
<path d="M1915 680 c-3 -6 1 -7 10 -4 11 5 14 2 9 -12 -5 -15 -4 -16 4 -4 11
15 7 30 -8 30 -5 0 -12 -4 -15 -10z"/>
<path d="M2590 682 c0 -4 9 -8 19 -8 11 0 17 4 15 8 -3 4 -12 8 -20 8 -8 0
-14 -4 -14 -8z"/>
<path d="M2827 679 c7 -7 15 -10 18 -7 3 3 -2 9 -12 12 -14 6 -15 5 -6 -5z"/>
<path d="M2917 671 c-10 -14 -10 -14 4 -4 9 7 18 10 21 7 3 -3 8 -1 12 4 9 16
-24 9 -37 -7z"/>
<path d="M3435 680 c-3 -5 -1 -10 4 -10 6 0 11 5 11 10 0 6 -2 10 -4 10 -3 0
-8 -4 -11 -10z"/>
<path d="M2282 658 c-7 -7 -12 -16 -12 -21 0 -5 8 -1 17 8 16 16 17 16 30 -1
7 -10 13 -13 13 -8 0 11 -20 34 -30 34 -3 0 -11 -5 -18 -12z"/>
<path d="M2710 665 c0 -7 30 -13 34 -7 3 4 -4 9 -15 9 -10 1 -19 0 -19 -2z"/>
<path d="M3076 662 c-2 -4 -1 -14 4 -22 7 -11 9 -9 7 8 -1 24 -3 26 -11 14z"/>
<path d="M3377 654 c5 -13 3 -15 -7 -9 -9 5 -11 4 -6 -3 4 -7 11 -12 17 -12
12 0 12 27 -1 35 -6 4 -7 -1 -3 -11z"/>
<path d="M2189 643 c-13 -17 -13 -17 6 -3 11 8 22 16 24 17 2 2 0 3 -6 3 -6 0
-17 -8 -24 -17z"/>
<path d="M2396 647 c3 -10 9 -15 12 -12 3 3 0 11 -7 18 -10 9 -11 8 -5 -6z"/>
<path d="M3100 652 c0 -6 5 -14 10 -17 6 -4 8 -10 6 -14 -3 -4 1 -8 9 -8 12 0
12 4 -2 21 -10 12 -19 23 -20 25 -2 2 -3 -1 -3 -7z"/>
<path d="M3186 644 c-9 -24 -2 -26 12 -4 7 11 8 20 3 20 -5 0 -12 -7 -15 -16z"/>
<path d="M3291 644 c0 -11 3 -14 6 -6 3 7 2 16 -1 19 -3 4 -6 -2 -5 -13z"/>
<path d="M2070 638 c0 -11 12 -10 30 2 12 7 10 9 -8 7 -12 0 -22 -5 -22 -9z"/>
<path d="M2130 642 c0 -4 10 -9 22 -9 18 -2 20 0 8 7 -18 12 -30 13 -30 2z"/>
<path d="M2496 638 c3 -5 10 -6 15 -3 13 9 11 12 -6 12 -8 0 -12 -4 -9 -9z"/>
<path d="M2576 638 c3 -5 10 -6 15 -3 13 9 11 12 -6 12 -8 0 -12 -4 -9 -9z"/>
<path d="M2630 639 c0 -5 5 -7 10 -4 6 3 10 8 10 11 0 2 -4 4 -10 4 -5 0 -10
-5 -10 -11z"/>
<path d="M2870 639 c0 -5 5 -7 10 -4 6 3 10 8 10 11 0 2 -4 4 -10 4 -5 0 -10
-5 -10 -11z"/>
<path d="M3156 633 c-6 -14 -5 -15 5 -6 7 7 10 15 7 18 -3 3 -9 -2 -12 -12z"/>
<path d="M3216 634 c-3 -9 -2 -12 5 -9 5 4 18 1 27 -6 13 -11 12 -8 -2 9 -23
26 -22 26 -30 6z"/>
<path d="M3266 637 c3 -10 9 -15 12 -12 3 3 0 11 -7 18 -10 9 -11 8 -5 -6z"/>
<path d="M3494 636 c1 -8 5 -18 8 -22 4 -3 5 1 4 10 -1 8 -5 18 -8 22 -4 3 -5
-1 -4 -10z"/>
<path d="M1993 613 c0 -9 4 -10 14 -2 7 6 13 12 13 14 0 1 -6 2 -13 2 -8 0
-14 -6 -14 -14z"/>
<path d="M2033 613 c0 -9 4 -10 14 -2 7 6 13 12 13 14 0 1 -6 2 -13 2 -8 0
-14 -6 -14 -14z"/>
<path d="M2110 623 c5 -2 8 -9 5 -13 -3 -5 -1 -11 4 -14 5 -4 8 2 7 11 -2 9
-8 18 -15 19 -6 1 -7 0 -1 -3z"/>
<path d="M3340 626 c0 -2 8 -10 18 -17 15 -13 16 -12 3 4 -13 16 -21 21 -21
13z"/>
<path d="M2190 605 c0 -8 4 -15 8 -15 5 0 9 7 9 15 0 8 -4 15 -9 15 -4 0 -8
-7 -8 -15z"/>
<path d="M2375 611 c-3 -5 -2 -12 3 -15 5 -3 9 1 9 9 0 17 -3 19 -12 6z"/>
<path d="M3390 605 c0 -5 5 -17 10 -25 5 -8 10 -10 10 -5 0 6 -5 17 -10 25 -5
8 -10 11 -10 5z"/>
<path d="M2055 580 c3 -5 8 -10 11 -10 2 0 4 5 4 10 0 6 -5 10 -11 10 -5 0 -7
-4 -4 -10z"/>
<path d="M2090 579 c0 -5 5 -7 10 -4 6 3 10 8 10 11 0 2 -4 4 -10 4 -5 0 -10
-5 -10 -11z"/>
<path d="M2233 575 c0 -8 4 -12 9 -9 5 3 6 10 3 15 -9 13 -12 11 -12 -6z"/>
<path d="M3150 586 c0 -2 7 -7 16 -10 8 -3 12 -2 9 4 -6 10 -25 14 -25 6z"/>
</g>
</svg>
